<?xml version="1.0" standalone="no"?>
<!DOCTYPE svg PUBLIC "-//W3C//DTD SVG 1.1//EN" "http://www.w3.org/Graphics/SVG/1.1/DTD/svg11.dtd" >
<!--
2013-9-30: Created.
-->
<svg>
<metadata>
Created by iconfont
</metadata>
<defs>

<font id="iconfont" horiz-adv-x="1024" >
  <font-face
    font-family="iconfont"
    font-weight="500"
    font-stretch="normal"
    units-per-em="1024"
    ascent="896"
    descent="-128"
  />
    <missing-glyph />
    
    <glyph glyph-name="gerenzhongxin" unicode="&#58912;" d="M515.453-153.676c-113.721 0-266.502 6.989-348.39 40.167-40.378 16.325-68.307 54.987-71.155 98.45-1.556 23.288-2.136 48.58 4.167 75.402 11.658 71.839 77.458 134.582 195.267 185.060 10.812 4.642 22.206 9.521 32.676 14.267-33.177 47.92-61.265 124.798-60.263 226.704l0.185 5.195c5.301 117.888 82.864 245.956 240.445 245.956h7.067c155.127 0 233.403-127.277 240.497-245.587l0.21-5.274c0.923-102.274-27.11-179.153-60.235-227.020 10.655-4.799 22.074-9.705 32.413-14.135 117.938-50.531 183.819-113.299 195.766-186.565 5.986-25.396 5.433-50.715 3.876-74.108-2.954-43.939-30.066-81.546-70.785-98.266-81.414-33.256-230.765-40.246-341.743-40.246zM508.386 656.506c-112.113 0-156.025-91.435-159.559-169.738-1.371-137.957 55.964-194.739 62.505-200.752l10.022-9.23 2.426-13.425c0.632-3.533 1.266-8.623 1.424-15.349l0.052-2.928-0.368-2.875c-0.317-2.847-1.002-6.249-1.74-9.15l-3.824-15.139-12.949-8.65c-18.356-12.237-47.841-24.896-79.067-38.32-89.457-38.32-140.463-81.572-147.531-125.036l-0.607-3.059c-4.272-18.303-3.481-36.658-2.426-52.536 0.844-12.738 8.966-23.973 20.729-28.747 53.669-21.732 169.579-34.232 317.981-34.232 144.472 0 257.851 12.473 311.044 34.205 11.869 4.88 19.781 15.878 20.651 28.668 1.107 16.615 1.819 34.365-2.215 51.614l-0.607 3.085c-7.279 44.492-58.364 87.77-147.9 126.144-29.644 12.685-60.288 25.846-78.908 38.241l-12.395 8.282-4.062 14.32c-1.055 3.692-1.819 7.911-2.137 11.525l-0.21 2.11 0.026 2.137c0.105 6.488 0.66 11.366 1.214 14.848l2.215 13.952 10.417 9.521c6.513 5.986 63.797 62.478 62.558 199.46-3.852 64.561-41.696 171.056-159.69 171.056l-7.070 0z"  horiz-adv-x="1024" />

    
    <glyph glyph-name="iconfonticon5" unicode="&#58901;" d="M679.741887 383.0033c63.883983 47.029106 105.58678 122.491799 105.58678 207.717855 0 142.309146-115.78812 258.094196-258.103406 258.094196-142.31324 0-258.103406-115.784026-258.103406-258.094196 0-86.268806 42.706661-162.577772 107.916848-209.453383-0.031722-0.013303-0.063445-0.025583-0.096191-0.038886C79.481727 274.609591 79.481727-46.749488 79.481727-46.749488l63.956637 0c0 0 33.171494 383.761314 383.786896 383.761314 351.373673 0 383.692752-383.761314 383.692752-383.761314l63.956637 0c0 0 0 320.679603-294.861588 429.650457C679.921989 382.934738 679.831938 382.969531 679.741887 383.0033L679.741887 383.0033zM333.085656 590.721155c0 107.053178 87.091544 194.129372 194.140629 194.129372 107.047038 0 194.140629-87.076194 194.140629-194.129372 0-107.031689-87.091544-194.107883-194.140629-194.107883S333.085656 483.689467 333.085656 590.721155L333.085656 590.721155z"  horiz-adv-x="1024" />

    
    <glyph glyph-name="gouwuche" unicode="&#58897;" d="M317.125 207.496l539.969 0c25.713 0 51.426 17.142 59.996 42.854l102.852 445.688c8.572 17.142 0 34.284-8.57 51.426-8.57 17.142-34.285 25.712-51.426 25.712L222.844 773.176 197.132 884.6 34.284 884.6C17.142 884.6 0 876.029 0 858.887c0-17.142 17.142-34.284 34.284-34.284l111.421 0 51.426-222.844 0 0c0-8.571 0-8.571 0-17.142l77.138-317.125c-34.283-17.142-68.567-59.996-68.567-111.423 0-34.283 17.142-59.996 34.284-77.138-17.143-17.142-34.284-51.426-34.284-77.138 0-59.998 51.426-111.423 111.422-111.423 59.997 0 111.422 42.854 111.422 102.852 0 17.142-8.571 34.283-8.571 51.426l368.55 0c-8.568-17.143-8.568-34.284-8.568-51.426 0-59.997 51.424-111.423 111.42-111.423 59.998 0 111.424 51.426 111.424 111.423 0 59.996-42.855 102.851-102.852 111.422l-8.572 0L317.125 104.644l0 0c-25.713 0-51.425 25.713-51.425 51.425C274.27 181.782 291.412 207.496 317.125 207.496zM882.807 44.648c25.713 0 51.426-25.713 51.426-51.426 0-25.714-17.143-42.855-51.426-42.855-25.713 0-51.426 25.714-51.426 51.427C831.381 27.506 857.094 44.648 882.807 44.648zM317.125-49.633c-25.713 0-51.425 25.714-51.425 51.427 0 25.712 25.712 51.425 51.425 51.425l0 0 0 0c25.713 0 51.426-25.713 51.426-51.425C368.551-32.491 342.838-49.633 317.125-49.633zM857.094 267.492 342.838 267.492 274.27 567.475l651.392 0L857.094 267.492zM959.945 713.181l-17.143-85.709L257.128 627.472l-17.142 77.139L959.945 713.181z"  horiz-adv-x="1024" />

    
    <glyph glyph-name="laba" unicode="&#58906;" d="M843.674 381.699c0 94.451-51.227 176.838-127.348 221.192-3.455 1.826-11.6 5.359-17.279 5.359-16.902 0-30.605-13.709-30.605-30.612 0-11.344 6.043-21.464 15.211-26.752 58.854-33.443 98.582-96.653 98.582-169.185 0-73.808-41.107-138-101.676-170.965-8.814-5.372-14.66-15.145-14.66-26.224 0-16.909 13.711-30.612 30.613-30.612 7.182-0.064 15.689 4.172 15.689 4.172C790.615 201.805 843.674 285.539 843.674 381.699zM808.344 758.542c-5.688 3.404-11.361 6.184-18.221 6.184-16.824 0-30.457-13.639-30.457-30.459 0-12.123 7.207-21.873 17.387-27.404C888.863 641.622 964.07 520.495 964.07 381.699c0-138.699-75.109-259.753-186.799-325.02-9.807-5.322-18.246-15.402-18.246-27.867 0-16.826 13.639-30.456 30.459-30.456 6.76 0 12.146 2.594 17.988 5.984 129.758 75.726 217.025 216.296 217.025 377.359C1024.498 542.408 937.611 682.702 808.344 758.542zM80.775 593.524l151.259 0c20.174 0 51.169 8.287 186.354 107.302 24.097 17.651 47.63 35.383 67.996 50.946 0 0 0.52-397.568 0.52-398.723 0-16.98 13.764-30.744 30.745-30.744 16.98 0 30.744 13.764 30.744 30.744 0 3.293-1.488 452.575-1.488 452.575 0.012 14.226-8.141 27.199-20.961 33.385-12.813 6.177-28.036 4.484-39.187-4.383-0.528-0.429-54.833-43.586-114.813-87.76C267.62 670.017 237.251 657.22 231.087 655.19L100.405 655.19c-0.754 0-1.468-0.103-2.215-0.114L31.458 655.076C14.639 655.076 1 641.437 1 624.617l0-486.265c0-16.821 13.633-30.454 30.458-30.454l223.817-0.012c6.068-2.204 34.731-15.468 127.295-90.954 53.852-43.906 102.177-86.771 102.655-87.192 6.923-6.146 15.714-9.354 24.627-9.354 5.128 0 10.309 1.073 15.184 3.258 13.307 5.987 21.867 19.215 21.867 33.813 0 0 0.064 170.331 0.064 170.766 0 0.436-0.047 0.856-0.064 1.289l0 0.92-0.047 0c-1.137 15.827-14.303 28.323-30.42 28.323-16.862 0-30.532-13.67-30.532-30.532 0-1.778 0.475-111.735 0.475-111.735-16.417 13.869-34.715 29.1-53.451 44.265C309.353 160.848 278.78 169.223 258.057 169.223c-0.409 0-0.786-0.108-1.196-0.122-0.401 0.014-0.785 0.122-1.193 0.122L87.801 169.223c-21.342 0-26.28 6.03-26.28 27.462L61.521 569.876C61.521 584.396 63.239 593.524 80.775 593.524z"  horiz-adv-x="1025" />

    
    <glyph glyph-name="jiantou" unicode="&#58928;" d="M830.687738 292.928818c0-9.614985-3.933589-17.949814-11.799744-25.007557-7.867178-7.05672-17.222243-10.56052-28.065196-10.512425L232.716714 257.408837c-10.789741 0-20.144806 3.5038-28.064172 10.512425-7.919367 7.009647-11.852956 15.344476-11.799744 25.007557 0.053212 9.660011 3.986801 17.996886 11.799744 25.00551l279.05253 248.641917c7.867178 7.009647 17.22122 10.513448 28.065196 10.513448 10.842952 0 20.196994-3.504824 28.064172-10.513448l279.05253-248.641917C826.754149 310.925704 830.687738 302.588829 830.687738 292.928818z"  horiz-adv-x="1024" />

    
    <glyph glyph-name="gou" unicode="&#58939;" d="M870.4 563.2 780.8 652.8 416 294.4 243.2 460.8 153.6 371.2 416 115.2 416 115.2 416 115.2Z"  horiz-adv-x="1024" />

    
    <glyph glyph-name="fenxiang" unicode="&#59193;" d="M768.73106 192.462288c-35.606921 0-67.945574-14.793214-91.167479-38.359147l-309.109357 171.670082c9.116748 17.545439 14.621199 37.155048 14.621199 58.312783 0 12.55703-2.408198 24.426004-5.676466 35.950949l304.63699 189.215522c22.705863-20.469679 52.464304-33.198723 85.146985-33.198723 70.525785 0 127.978498 57.452713 127.978498 127.978498S837.708718 832.010751 767.182933 832.010751s-127.978498-57.452713-127.978498-127.978498c0-14.621199 2.92424-28.382328 7.396607-41.455401L344.716278 475.253486c-23.049891 22.705863-54.700487 36.983034-89.791366 36.983034-70.525785 0-127.978498-57.452713-127.978498-127.978498s57.452713-127.978498 127.978498-127.978498c25.630102 0 49.540064 7.740635 69.493701 20.813707l321.150344-178.378633c-3.096254-11.008903-5.160423-22.18982-5.160423-34.058794 0-70.525785 57.452713-127.978498 127.978498-127.978498s127.978498 57.452713 127.978498 127.978498S839.256845 192.462288 768.73106 192.462288zM767.182933 768.021502c35.262893 0 63.989249-28.726356 63.989249-63.989249s-28.726356-63.989249-63.989249-63.989249-63.989249 28.726356-63.989249 63.989249S731.92004 768.021502 767.182933 768.021502zM191.107677 384.086007c0 35.262893 28.726356 63.989249 63.989249 63.989249s63.989249-28.726356 63.989249-63.989249-28.726356-63.989249-63.989249-63.989249S191.107677 348.823114 191.107677 384.086007zM768.73106 0.494541c-35.262893 0-63.989249 28.726356-63.989249 63.989249s28.726356 63.989249 63.989249 63.989249 63.989249-28.726356 63.989249-63.989249C832.720309 29.048883 803.993953 0.494541 768.73106 0.494541z"  horiz-adv-x="1024" />

    
    <glyph glyph-name="jiantouarrow486" unicode="&#59050;" d="M171.15136 554.99776l684.02176 0-342.016-341.99552L171.15136 554.99776z"  horiz-adv-x="1024" />

    
    <glyph glyph-name="yanjing" unicode="&#58977;" d="M515.2 672c-307.2 0-492.8-313.6-492.8-313.6s214.4-304 492.8-304 492.8 304 492.8 304S822.4 672 515.2 672zM832 243.2c-102.4-86.4-211.2-140.8-320-140.8s-217.6 51.2-320 140.8c-35.2 32-70.4 64-99.2 99.2-6.4 6.4-9.6 12.8-16 19.2 3.2 6.4 9.6 12.8 12.8 19.2 25.6 35.2 57.6 70.4 92.8 102.4 99.2 89.6 208 144 329.6 144s230.4-54.4 329.6-144c35.2-32 64-67.2 92.8-102.4 3.2-6.4 9.6-12.8 12.8-19.2-3.2-6.4-9.6-12.8-16-19.2C902.4 310.4 870.4 275.2 832 243.2zM512 550.4c-96 0-169.6-76.8-169.6-169.6 0-96 76.8-169.6 169.6-169.6 96 0 169.6 76.8 169.6 169.6C681.6 473.6 604.8 550.4 512 550.4zM512 256c-67.2 0-121.6 54.4-121.6 121.6 0 67.2 54.4 121.6 121.6 121.6 67.2 0 121.6-54.4 121.6-121.6C633.6 313.6 579.2 256 512 256z"  horiz-adv-x="1024" />

    
    <glyph glyph-name="bangzhu" unicode="&#58886;" d="M512.002558 784.647913c107.019409 0 207.623711-41.678238 283.284925-117.362988 75.680657-75.674517 117.360941-176.280866 117.360941-283.286971 0-107.022479-41.678238-207.625758-117.362988-283.286971-75.673493-75.679633-176.278819-117.358895-283.281855-117.358895-107.025549 0-207.630874 41.678238-283.292088 117.360941-75.679633 75.676563-117.358895 176.282912-117.358895 283.284925 0 107.018386 41.678238 207.624734 117.360941 283.289018C304.390104 742.968651 404.998499 784.647913 512.002558 784.647913M512.002558 831.719998c-119.596865 0-232.014214-46.582945-316.576145-131.148969-84.561931-84.541465-131.146922-196.975187-131.146922-316.573075 0-119.594819 46.584991-232.013191 131.146922-316.570006 84.561931-84.587514 196.9977-131.146922 316.576145-131.146922 119.575376 0 232.010121 46.581921 316.567959 131.146922 84.569094 84.540442 131.148969 196.975187 131.148969 316.570006 0 119.597889-46.580898 232.013191-131.148969 316.573075C744.011656 785.156496 631.597377 831.719998 512.002558 831.719998L512.002558 831.719998zM511.999488 199.824327M635.508453 603.417315c-29.627784 26.409486-68.285223 39.634696-115.995851 39.634696-54.130851 0-96.895841-15.895015-128.330784-47.706535-31.428803-31.813566-47.136553-75.1557-47.136553-130.048915l0.060375 0c0.829901-17.228383 15.057951-30.94171 32.492018-30.94171s31.66314 13.713326 32.494065 30.94171l0.021489 0c0 0.413416 0.007163 0.819668 0.00921 1.231037 0.001023 0.119727 0.00921 0.23843 0.00921 0.360204 0 0.068562-0.005117 0.138146-0.005117 0.206708 0.518816 81.388658 36.263925 122.102942 107.314121 122.102942 27.443026 0 50.081629-7.968485 67.905576-23.865547s26.746154-36.285414 26.746154-61.164035c0-28.968775-16.530488-58.347896-49.638537-88.10257l-24.626887-21.935592c-24.115234-21.533432-39.590694-40.268122-46.372144-56.164161-6.78145-15.915481-10.168594-41.564651-10.168594-76.957743l0.008186-0.080841c-0.080841-0.900509-0.128937-1.810229-0.128937-2.731204 0-16.733103 13.563924-30.293957 30.293957-30.293957 15.963577 0 29.031197 12.345166 30.199813 28.009937l0.073678 0.089028 0.334621 11.158131c0 36.427654 17.291828 68.730361 51.92051 96.957239 57.988716 47.432289 86.962607 92.850711 86.962607 136.193869C679.952688 542.63395 665.140331 576.989409 635.508453 603.417315zM511.999488 152.902668m-40.932248 0a40 40 0 1 0 81.864496 0 40 40 0 1 0-81.864496 0Z"  horiz-adv-x="1024" />

    
    <glyph glyph-name="xiazai" unicode="&#58889;" d="M662.62186 334.731594c68.523788 46.884193 113.609197 126.232559 113.609197 216.401253 0 146.068057-119.020424 265.088481-265.088481 265.088481-146.072307 0-263.289697-119.020424-263.289697-263.284384 0-90.169757 45.08541-169.51706 113.61026-216.401253C206.375662 275.221914 98.177692 125.545664 98.177692-49.37731l0 0 73.936077 0 0 0c0 173.118878 131.641661 317.383901 299.353562 337.221524 1.804096 0 46.885256 3.60713 84.755343 0l3.60713 0 0 0c164.104771-23.441566 290.33733-164.101583 290.33733-335.417427l0 0 75.739111 0 0 0C924.101085 125.545664 815.903115 275.221914 662.62186 334.731594L662.62186 334.731594zM511.142576 354.568155c-110.006317 0-198.367727 88.363535-198.367727 198.36879 0 110.002067 88.362473 198.363477 198.367727 198.363477 110.001004 0 198.363477-88.36141 198.363477-198.363477C709.506053 442.930627 621.14358 354.568155 511.142576 354.568155L511.142576 354.568155zM511.142576 354.568155"  horiz-adv-x="1024" />

    
    <glyph glyph-name="icon03" unicode="&#58890;" d="M634.65472 314.08128c92.89728 45.48608 157.02016 140.65664 157.02016 251.04384C791.67488 719.58528 666.46016 844.8 512 844.8c-154.46016 0-279.67488-125.21472-279.67488-279.67488 0-110.3872 64.12288-205.57824 157.02016-251.04384-154.15296-49.37728-270.25408-188.7232-282.46016-357.56032-1.2288-17.12128 11.63264-31.98976 28.75392-33.23904 17.24416-1.20832 31.98976 11.65312 33.23904 28.75392C181.80096 131.09248 332.53376 271.36 512 271.36s330.19904-140.26752 343.1424-319.32416c1.18784-16.36352 14.82752-28.83584 30.96576-28.83584 0.75776 0 1.51552 0.02048 2.27328 0.08192 17.12128 1.2288 29.98272 16.11776 28.75392 33.23904C904.92928 125.35808 788.82816 264.704 634.65472 314.08128zM294.48192 565.12512c0 120.13568 97.3824 217.51808 217.51808 217.51808 120.13568 0 217.51808-97.3824 217.51808-217.51808S632.13568 347.60704 512 347.60704C391.86432 347.60704 294.48192 444.98944 294.48192 565.12512z"  horiz-adv-x="1024" />

    
    <glyph glyph-name="icon02" unicode="&#58884;" d="M513.7408-83.64032M815.14496 592.85504l0 93.73696c0 30.26944-23.9616 54.80448-51.2 54.80448s-51.2-24.53504-51.2-54.80448l0-19.33312-204.61568 179.11808L1.24928 407.9616l51.17952-45.4656 107.37664 90.64448 0-503.1936c0-16.65024 4.87424-28.32384 21.52448-28.32384l692.736 0c16.65024 0 23.01952 11.6736 23.01952 28.32384L897.08544 428.81024l77.55776-66.29376 45.17888 45.4656L815.14496 592.85504zM630.82496-16.93696l-225.28 0 0 409.6 225.28 0L630.82496-16.93696zM835.62496-16.93696l-143.36 0L692.26496 421.70368c0 16.65024-4.32128 32.37888-21.25824 32.37888L357.02784 454.08256c-16.93696 0-12.92288-15.74912-12.92288-32.37888l0-438.66112-122.88 0 0 522.24L508.12928 757.248l327.49568-280.96512C835.62496 476.28288 835.62496-16.93696 835.62496-16.93696z"  horiz-adv-x="1024" />

    
    <glyph glyph-name="xin" unicode="&#58888;" d="M511.987-15.927c-11.778 0-23.397 3.967-32.717 11.169-6.322 4.887-63.714 49.503-131.443 110.731-90.284 81.62-155.042 152.78-192.476 211.504-16.984 26.669-33.263 53.062-45.803 82.796-14.956 35.462-22.225 70.536-22.225 107.227 0 67.594 24.281 131.373 68.372 179.587 45.312 49.55 105.938 76.838 170.712 76.838 72.511 0 140.648-35.542 185.59-94.887 44.955 59.343 113.097 94.887 185.596 94.887 64.765 0 125.388-27.288 170.701-76.837 44.098-48.219 68.383-111.998 68.383-179.588 0-83.24-39.333-144.955-68.054-190.018-37.422-58.726-102.177-129.888-192.467-211.51-67.731-61.229-125.131-105.847-131.453-110.732C535.378-11.962 523.761-15.927 511.987-15.927zM326.407 713.927c-50.567 0-98.09-21.515-133.814-60.581-35.642-38.975-55.27-90.771-55.27-145.845 0-29.887 5.984-58.605 18.295-87.797 11.03-26.153 26.114-50.57 41.901-75.358 84.647-132.791 303.07-302.387 312.327-309.542 0.781-0.604 1.595-0.73 2.141-0.73 0.545 0 1.36 0.127 2.146 0.734 9.253 7.15 227.699 176.748 312.323 309.545 28.228 44.291 60.22 94.487 60.22 163.148 0 55.07-19.632 106.866-55.279 145.845-35.727 39.065-83.246 60.58-133.805 60.58-67.126 0-129.784-39.45-163.522-102.955-4.338-8.167-12.831-13.271-22.078-13.271-0.001 0-0.002 0-0.003 0-9.248 0.001-17.74 5.107-22.078 13.276C456.194 674.478 393.542 713.927 326.407 713.927z"  horiz-adv-x="1024" />

    
    <glyph glyph-name="qiaquan" unicode="&#58974;" d="M1032.237086 389.04409 464.904954-106.347815C449.170659-120.090782 428.948864-127.663438 407.969804-127.663438 383.316603-127.663438 359.841371-117.230001 343.546138-98.999534L253.712006 1.268034C244.737007 11.308814 245.690601 26.650454 255.871615 35.513265 272.587551 50.097639 283.834347 71.721777 286.779269 94.888494 289.696143 118.05521 283.918488 139.090364 270.455989 154.067394 255.394819 170.923564 236.126617 174.45747 222.579978 174.45747 199.946152 174.45747 175.152717 164.613018 156.277172 148.149504 146.404673 139.511067 131.37155 140.100052 122.228269 149.523801L104.306318 168.034736 21.511951 260.477227C-9.872499 295.507771-6.534921 349.245578 28.944372 380.293466L596.304551 875.657323C630.465641 905.527242 687.484932 902.04943 717.63532 868.309043L810.835076 764.283193C819.838122 754.242413 818.884529 738.900774 808.731561 730.037962 775.552111 701.065543 772.466955 650.833595 801.860077 618.046802 830.103278 586.550164 883.196007 583.296727 915.197488 611.175318 925.322409 620.066176 940.860376 619.14063 949.891469 609.099849L1039.697554 508.832281C1054.927006 491.80783 1062.527708 470.01541 1061.125364 447.381584 1059.723021 424.775805 1049.457865 404.049166 1032.237086 389.04409ZM628.895016 839.28053 61.506791 343.916672C47.847964 331.996752 45.99687 312.420035 55.42062 297.639333L676.097902 839.589045C662.57931 850.162716 641.992906 850.779747 628.895016 839.28053ZM927.790534 560.49462C907.989442 548.939308 885.327569 542.74095 862.020618 542.74095 824.942653 542.74095 789.603594 558.475245 765.034534 585.877039 723.272741 632.490941 722.235007 701.037497 759.284925 748.576945L701.452275 813.112798 78.979992 269.620508 142.618345 198.689968C167.047171 214.312076 195.178184 222.978559 222.579978 222.978559 255.983803 222.978559 286.078097 209.936764 307.281532 186.237157 330.223874 160.658409 340.264654 126.076616 335.552779 88.858416 332.215202 62.494356 321.501296 37.280218 305.318251 16.918189L357.120824-40.914462 979.621154 502.605875 927.790534 560.49462ZM1003.769511 475.119941 381.830119-67.9236C395.040195-81.10563 418.150818-82.451879 432.314489-69.999068L999.674667 425.392836C1007.050995 431.843617 1011.454354 440.706428 1012.043338 450.354552 1012.632322 459.441739 1009.519119 468.052129 1003.769511 475.119941ZM356.195277 271.892304 665.243763 541.759309C672.844465 548.406418 684.483917 547.705246 691.27126 540.188684 698.002509 532.644076 697.301338 521.144858 689.672588 514.469702L380.624103 244.658791C377.146291 241.601682 372.770979 240.059104 368.423714 240.059104 363.319183 240.059104 358.270746 242.16262 354.624653 246.201369 347.865356 253.745978 348.566528 265.245196 356.195277 271.892304ZM738.97899 459.413692C746.607739 466.116895 758.275238 465.359629 765.006487 457.843067 771.765783 450.326506 771.064612 438.827288 763.435862 432.152132L454.387377 162.341221C450.881518 159.256065 446.506206 157.769581 442.158941 157.769581 437.082457 157.769581 431.977926 159.84505 428.35988 163.911846 421.62863 171.428408 422.301755 182.927626 429.958551 189.602781L738.97899 459.413692ZM304.336611 329.837142C300.830752 326.751986 296.45544 325.265502 292.136221 325.265502 287.031691 325.265502 281.955207 327.340971 278.309113 331.37972 271.577864 338.924329 272.279036 350.423547 279.907785 357.070655L588.95627 626.909613C596.556973 633.584769 608.252518 632.883597 614.955721 625.338988 621.715017 617.822427 621.013845 606.295162 613.385096 599.648053L304.336611 329.837142Z"  horiz-adv-x="1062" />

    
    <glyph glyph-name="shoucang1" unicode="&#58983;" d="M881.74273-127.520254C877.699159-127.520254 873.655588-126.595031 869.954693-124.710315L554.624717 35.867414 239.329009-124.710315C230.830657-129.062294 220.413323-128.342675 212.600322-122.8256 204.787321-117.342793 200.880821-108.02202 202.525663-98.804049L262.733744 241.369899 7.680386 482.27076C0.758341 488.815862-1.74319 498.582113 1.238087 507.457408 4.253631 516.366971 12.169434 522.843537 21.73008 524.214239L374.240345 573.833648 531.871066 883.338141C540.403685 900.12924 568.880017 900.12924 577.378369 883.338141L735.043357 573.833648 1087.553622 524.214239C1097.114268 522.843537 1105.030072 516.366971 1108.045616 507.457408 1110.992625 498.582113 1108.525362 488.815862 1101.603317 482.27076L846.51569 241.369899 906.75804-98.804049C908.402882-108.02202 904.462114-117.342793 896.683381-122.8256 892.262867-125.943947 887.019932-127.520254 881.74273-127.520254Z"  horiz-adv-x="1110" />

    
    <glyph glyph-name="shoucang3" unicode="&#58934;" d="M1003.735979 450.074881 1003.735979 450.074881 746.069525 260.809283l99.258655-307.950697c1.547239-4.76963 2.40477-9.924024 2.40477-15.210423 0-26.948769-21.48329-48.734958-47.963385-48.734958-10.509355 0-20.191878 3.477194-28.105105 9.282411l0 0L512.001535 88.881562 252.337587-101.802338l-0.016373 0c-7.896854-5.805216-17.58347-9.282411-28.090778-9.282411-26.495444 0-47.962362 21.786189-47.962362 48.734958 0 5.2864 0.854461 10.440793 2.4017 15.210423l99.259678 307.950697L20.250718 450.074881l0.016373 0C8.244266 458.907037 0.410857 473.282443 0.410857 489.528452c0 26.881231 21.466917 48.671513 47.960315 48.671513l0 0 318.987055 0 98.775654 306.463834c6.027274 19.9821 24.270776 34.422997 45.86663 34.422997 21.595854 0 39.839357-14.439874 45.849234-34.422997l98.791004-306.463834 318.988078 0 0 0c26.494421 0 47.959292-21.790282 47.959292-48.671513C1023.587096 473.282443 1015.756757 458.907037 1003.735979 450.074881z"  horiz-adv-x="1024" />

    
    <glyph glyph-name="tishi" unicode="&#58952;" d="M187.732004 739.473221c-13.330296 13.331627-34.948251 13.331627-48.263899 0-13.335622-13.326301-13.335622-34.937598 0-48.274552l48.263899-48.263899c13.331627-13.331627 34.933604-13.331627 48.269226 0 13.326301 13.326301 13.326301 34.932272 0 48.263899L187.732004 739.473221 187.732004 739.473221 187.732004 739.473221zM836.261339 739.473221l-48.269226-48.274552c-13.326301-13.331627-13.326301-34.937598 0-48.263899 13.315648-13.331627 34.932272-13.331627 48.269226 0l48.258573 48.263899c13.336953 13.336953 13.336953 34.942925 0 48.274552C871.194942 752.799522 849.592966 752.799522 836.261339 739.473221L836.261339 739.473221 836.261339 739.473221zM102.402665 469.33733 34.139994 469.33733C15.28903 469.33733 0.002666 454.054961 0.002666 435.210655c0-18.854958 15.28237-34.137328 34.137328-34.137328l68.262672 0c18.850963 0 34.132002 15.28237 34.132002 34.137328C136.534667 454.054961 121.253629 469.33733 102.402665 469.33733L102.402665 469.33733 102.402665 469.33733zM989.85468 469.33733l-68.264003 0c-18.849632 0-34.137328-15.28237-34.137328-34.126675 0-18.854958 15.286364-34.137328 34.137328-34.137328l68.264003 0c18.849632 0 34.142654 15.28237 34.142654 34.137328C1023.997334 454.054961 1008.704312 469.33733 989.85468 469.33733L989.85468 469.33733 989.85468 469.33733zM477.862672 861.867998l0-68.264003c0-18.854958 15.28237-34.13067 34.132002-34.13067 18.844306 0 34.137328 15.275712 34.137328 34.13067L546.132002 861.867998C546.132002 880.71763 530.838979 896 511.994674 896 493.145042 896 477.862672 880.71763 477.862672 861.867998L477.862672 861.867998 477.862672 861.867998zM273.066668 384.007992c0 131.955413 106.967267 238.928006 238.928006 238.928006 131.960739 0 238.933332-106.972593 238.933332-238.928006 0-131.960739-106.972593-238.937327-238.933332-238.937327C380.033935 145.070665 273.066668 252.048585 273.066668 384.007992L273.066668 384.007992 273.066668 384.007992zM204.803996 384.007992c0-169.675982 137.525348-307.211982 307.190677-307.211982S819.190677 214.332011 819.190677 384.007992c0 169.665329-137.530675 307.190677-307.196004 307.190677S204.803996 553.673321 204.803996 384.007992L204.803996 384.007992 204.803996 384.007992zM443.730671-93.862667c0-18.838979 15.28237-34.137328 34.132002-34.137328l68.269329 0c18.849632 0 34.132002 15.297017 34.132002 34.137328 0 18.860284-15.28237 34.132002-34.132002 34.132002l-68.269329 0C459.01304-59.730665 443.730671-75.002382 443.730671-93.862667L443.730671-93.862667 443.730671-93.862667zM375.467999 8.533338c0-18.834985 15.281038-34.132002 34.126675-34.132002l204.799999 0c18.849632 0 34.132002 15.297017 34.132002 34.132002 0 18.865611-15.28237 34.142654-34.132002 34.142654L409.594674 42.675992C390.743711 42.674661 375.467999 27.398949 375.467999 8.533338L375.467999 8.533338 375.467999 8.533338zM375.467999 8.533338"  horiz-adv-x="1025" />

    
    <glyph glyph-name="wedding-cake" unicode="&#59070;" d="M1001.73913-58.296765h-89.043478v329.460869c0 12.294678-9.968417 22.26087-22.260869 22.26087h-72.370087v209.252174c0 12.294678-9.968417 22.26087-22.26087 22.260869h-72.330017v209.252174c0 12.294678-9.968417 22.26087-22.26087 22.26087h-82.009043c21.958122 25.976209 32.442991 59.599026 28.865669 93.8496a22.26087 22.26087 0 0 1-19.829982 19.827756c-37.787826 3.944626-74.852174-9.178157-101.6832-36.00473A126.025461 126.025461 0 0 1 512 816.622191a126.007652 126.007652 0 0 1-14.556383 17.49927c-26.8288 26.8288-63.902052 39.94713-101.6832 36.006956a22.26087 22.26087 0 0 1-19.829982-19.829982c-3.575096-34.250574 6.909774-67.873391 28.865669-93.847374h-82.009043c-12.294678 0-22.26087-9.966191-22.26087-22.26087v-209.252174H228.196174c-12.294678 0-22.26087-9.966191-22.26087-22.260869v-209.252174H133.565217c-12.294678 0-22.26087-9.966191-22.260869-22.26087v-329.460869H22.26087c-12.294678 0-22.26087-9.966191-22.26087-22.26087s9.966191-22.26087 22.26087-22.260869h979.47826c12.292452 0 22.26087 9.966191 22.26087 22.260869s-9.966191 22.26087-22.26087 22.26087zM558.03993 802.640139a80.406261 80.406261 0 0 0 45.347618 22.804035c-2.482087-17.016209-10.35353-32.894887-22.806261-45.347617-12.45273-12.45273-28.329183-20.324174-45.347617-22.804035a80.415165 80.415165 0 0 0 22.80626 45.347617z m-92.077634 0.002226c12.450504-12.45273 20.321948-28.331409 22.804034-45.347617a80.432974 80.432974 0 0 0-45.347617 22.804035c-12.450504 12.45273-20.321948 28.331409-22.804035 45.347617a80.450783 80.450783 0 0 0 45.347618-22.804035z m212.992-90.713043v-22.292035c-19.970226-17.728557-45.340939-27.425391-72.356731-27.425391-29.9008 0-57.807026 11.845009-78.578643 33.351234l-0.284939 0.289392a22.205217 22.205217 0 0 1-15.934331 6.517982 22.247513 22.247513 0 0 1-15.818574-6.796243c-20.773843-21.508452-48.68007-33.355687-78.583095-33.355687-27.013565 0-52.379826 9.694609-72.347826 27.420939V711.929322h333.904139zM345.04793 635.703652c21.973704-11.751513 46.63207-18.006817 72.350053-18.006817 34.818226 0 67.713113 11.410922 94.593113 32.494191 26.88-21.085496 59.781565-32.50087 94.602017-32.500869h0.004452c25.71353 0 50.36967 6.255304 72.354505 18.017947v-110.770087H345.04793V635.703652z m428.497253-155.287374v-27.665808c-19.970226-17.730783-45.340939-27.427617-72.356731-27.427618-29.9008 0-57.807026 11.842783-78.580869 33.349009a22.269774 22.269774 0 0 1-16.036731 6.807374h-0.193669a22.276452 22.276452 0 0 1-15.823026-6.800696c-20.773843-21.506226-48.68007-33.351235-78.58087-33.351235-29.9008 0-57.807026 11.845009-78.58087 33.351235l-0.282713 0.289391a22.236383 22.236383 0 0 1-15.93433 6.520209 22.256417 22.256417 0 0 1-15.818574-6.796243c-20.771617-21.508452-48.68007-33.355687-78.58087-33.355687-26.997983-0.002226-52.350887 9.683478-72.314434 27.387548v27.694747h523.083687zM250.457043 398.799026c21.9648-11.738157 46.609809-17.989009 72.316661-17.986783 34.818226 0 67.713113 11.410922 94.590887 32.494192 26.882226-21.085496 59.783791-32.50087 94.60647-32.50087 34.802643 0 67.693078 11.402017 94.599791 32.505322 26.884452-21.089948 59.79047-32.507548 94.6176-32.507548 25.722435 0 50.383026 6.25753 72.356731 18.01127v-105.387409H250.457043v105.371826zM868.173913 248.903235v-25.210435c-19.970226-17.733009-45.343165-27.43207-72.361183-27.43207-29.898574 0-57.802574 11.842783-78.520765 33.291131a22.274226 22.274226 0 0 1-16.045635 6.876382h-0.060104a22.285357 22.285357 0 0 1-16.018922-6.805147c-20.773843-21.506226-48.68007-33.351235-78.580869-33.351235-29.871861 0-57.751374 11.820522-78.518539 33.284452a22.269774 22.269774 0 0 1-15.9744 6.87193c-6.141774-0.037843-11.91847-2.428661-16.141357-6.802921-20.773843-21.506226-48.682296-33.351235-78.583096-33.351235-29.9008 0-57.807026 11.845009-78.580869 33.351235l-0.282713 0.289391a22.287583 22.287583 0 0 1-15.934331 6.517983 22.247513 22.247513 0 0 1-15.818573-6.796244c-20.771617-21.508452-48.68007-33.355687-78.58087-33.355687-27.013565 0.002226-52.3776 9.694609-72.3456 27.416487v25.205983h712.347826z m-712.347826-307.2V169.763617c21.971478-11.749287 46.627617-18.002365 72.3456-18.002365 34.818226 0 67.713113 11.410922 94.590887 32.494191 26.882226-21.085496 59.783791-32.50087 94.606469-32.500869h0.002227c34.802643 0 67.690852 11.402017 94.599791 32.505322 26.882226-21.089948 59.79047-32.507548 94.6176-32.507548 34.82713 0 67.733148 11.4176 94.608696 32.500869 26.882226-21.0944 59.79047-32.512 94.6176-32.512h0.002226c25.711304 0 50.365217 6.253078 72.361182 18.029079v-228.064835H155.826087z"  horiz-adv-x="1024" />

    
    <glyph glyph-name="dizhi" unicode="&#58967;" d="M518.4 848C304 848 128 672 128 454.4c0-48 16-99.2 41.6-156.8C198.4 240 240 179.2 288 115.2c35.2-41.6 73.6-83.2 108.8-121.6l35.2-35.2c6.4-6.4 12.8-9.6 12.8-12.8 38.4-38.4 102.4-38.4 137.6 0l12.8 12.8 35.2 35.2c38.4 38.4 73.6 80 108.8 121.6C790.4 176 832 240 857.6 297.6c28.8 57.6 41.6 108.8 41.6 156.8C908.8 672 732.8 848 518.4 848z m304-528c-25.6-54.4-64-112-115.2-172.8-35.2-41.6-70.4-83.2-105.6-118.4l-35.2-35.2-12.8-12.8c-19.2-19.2-51.2-19.2-70.4 0l-12.8 12.8-35.2 35.2c-35.2 38.4-73.6 76.8-105.6 118.4-48 60.8-86.4 118.4-115.2 172.8-25.6 51.2-38.4 96-38.4 134.4C176 646.4 329.6 800 518.4 800c188.8 0 342.4-153.6 342.4-345.6 0-38.4-12.8-83.2-38.4-134.4z m-304 313.6c-96 0-169.6-76.8-169.6-172.8 0-96 76.8-172.8 169.6-172.8S688 364.8 688 460.8c0 96-73.6 172.8-169.6 172.8z m0-294.4c-67.2 0-121.6 54.4-121.6 124.8s54.4 124.8 121.6 124.8c67.2 0 121.6-54.4 121.6-124.8s-54.4-124.8-121.6-124.8z"  horiz-adv-x="1024" />

    
    <glyph glyph-name="shoucang2" unicode="&#58898;" d="M217.97888-73.66656c-10.72128 0-20.24448 4.28032-26.80832 12.06272-5.45792 6.47168-11.27424 18.19648-8.00768 37.39648l43.2128 253.68576c2.65216 15.57504-5.24288 39.79264-16.57856 50.81088L25.32352 459.71456c-13.49632 13.12768-18.61632 28.76416-14.03904 42.89536 4.57728 14.1312 17.88928 23.808 36.51584 26.54208l254.62784 37.29408c15.63648 2.29376 36.22912 17.28512 43.20256 31.46752L459.264 828.80512c8.31488 16.90624 21.61664 26.60352 36.49536 26.60352 14.848 0 28.14976-9.66656 36.48512-26.5216l114.14528-230.63552c7.02464-14.16192 27.648-29.11232 43.28448-31.36512l254.70976-36.7104c18.6368-2.68288 31.96928-12.32896 36.57728-26.44992 4.608-14.1312-0.48128-29.77792-13.94688-42.93632L782.94016 280.94464c-11.30496-11.03872-19.1488-35.2768-16.45568-50.86208l43.78624-253.5936c3.31776-19.21024-2.48832-30.95552-7.936-37.43744-11.30496-13.43488-31.19104-15.9232-51.05664-5.51936L523.35616 53.02272c-13.33248 7.00416-40.1408 6.9632-53.4528-0.06144l-227.64544-120.0128c-8.3456-4.39296-16.51712-6.61504-24.27904-6.61504zM54.26176 488.704L238.36672 309.6576c21.13536-20.57216 33.35168-57.98912 28.39552-87.05024L223.6416-30.55616l227.1744 119.7568c25.04704 13.19936 66.47808 13.23008 91.57632 0.1024l227.44064-119.2448-43.71456 253.06112c-5.0176 29.07136 7.10656 66.52928 28.20096 87.12192l183.68512 179.456L683.8272 526.336c-29.184 4.20864-61.05088 27.31008-74.1376 53.73952L495.77984 810.24 382.38208 579.81952c-13.01504-26.44992-44.83072-49.63328-74.01472-53.9136L54.26176 488.704z"  horiz-adv-x="1024" />

    
    <glyph glyph-name="chongzhijilu" unicode="&#58909;" d="M391.529 355.388h240.941v60.235h-240.941zM391.529 234.918h240.941v60.235h-240.941zM542.118 138.541v301.176h-60.235v-301.176zM367.435 505.976l126.494-126.494 42.165 42.165-126.494 126.494zM614.4 548.141l-126.494-126.494 42.165-42.165 126.494 126.494zM271.059 807.153h-60.235c-66.259 0-120.471-54.212-120.471-120.471v-662.588c0-66.259 54.212-120.471 120.471-120.471h602.353c66.259 0 120.471 54.212 120.471 120.471v662.588c0 66.259-54.212 120.471-120.471 120.471h-54.212v-60.235h54.212c36.141 0 60.235-24.094 60.235-60.235v-662.588c0-30.118-24.094-60.235-60.235-60.235h-602.353c-36.141 0-60.235 24.094-60.235 60.235v662.588c0 30.118 24.094 60.235 60.235 60.235h60.235v60.235zM391.529 746.918h240.941v60.235h-240.941v-60.235zM331.294 807.153c0 36.141 30.118 60.235 60.235 60.235h240.941c30.118 0 60.235-24.094 60.235-60.235v-60.235c0-36.141-30.118-60.235-60.235-60.235h-240.941c-30.118 0-60.235 24.094-60.235 60.235v60.235z"  horiz-adv-x="1024" />

    
    <glyph glyph-name="youjiantou" unicode="&#59185;" d="M385.174312 107.585039c-6.503881 0-13.007763 2.16796-18.066337 7.226535-10.117149 10.117149-10.117149 26.015526 0 35.410021l231.249117 231.249118c1.445307 1.445307 1.445307 4.335921 0 5.781228l-231.249117 232.694425c-10.117149 10.117149-10.117149 26.015526 0 36.132674s26.015526 10.117149 36.132674 0l231.971772-231.971771c21.679605-21.679605 21.679605-56.366972 0-77.323924l-231.249118-231.249118c-5.781228-5.781228-12.285109-7.949188-18.788991-7.949188z"  horiz-adv-x="1024" />

    
    <glyph glyph-name="zuojiantou" unicode="&#59186;" d="M622.927311 106.862385c-6.503881 0-13.007763 2.16796-18.066337 7.226535l-231.249118 231.249118c-10.117149 10.117149-15.898377 23.847565-15.898377 39.023289 0 14.45307 5.781228 28.183486 15.898377 39.023288l231.971771 231.971772c10.117149 10.117149 26.015526 10.117149 35.410022 0 10.117149-10.117149 10.117149-26.015526 0-35.410021l-231.249118-231.971772c-0.722653-0.722653-1.445307-2.16796-1.445307-2.890614 0-0.722653 0-2.16796 1.445307-2.890614l231.249118-231.249118c10.117149-10.117149 10.117149-26.015526 0-35.410021-5.058574-5.781228-11.562456-8.671842-18.066338-8.671842z"  horiz-adv-x="1024" />

    
    <glyph glyph-name="ziyuan" unicode="&#58935;" d="M802.191-128c-16.885 0.098-32.746 4.388-46.624 11.88l-222.431 116.928-222.803-117.37c-12.916-6.569-28.166-10.417-44.315-10.417-54.933 0-99.466 44.532-99.466 99.466 0 5.079 0.381 10.070 1.115 14.944l42.702 248.116-180.53 176.054c-17.305 17.874-27.97 42.267-27.97 69.15 0 48.824 35.178 89.432 81.571 97.86l249.272 36.397 114.883 226.285c17.010 31.85 50.031 53.155 88.027 53.155 37.997 0 71.017-21.305 87.766-52.622l111.662-226.321 248.664-36.305c47.201-8.346 82.593-49.052 82.593-98.024 0-27.092-10.832-51.655-28.4-69.593l-180.514-176.037 42.77-248.664c0.767-4.639 1.205-9.985 1.205-15.433 0-54.308-43.524-98.45-97.593-99.448zM533.136 823.39c-0.092 0.001-0.201 0.002-0.309 0.002-9.945 0-18.526-5.838-22.504-14.273l-120.418-242.848c-5.775-10.297-16.16-17.415-28.284-18.57l-267.129-38.623c-12.696-1.785-22.357-12.576-22.357-25.623 0-7.319 3.040-13.927 7.926-18.632l193.966-189.49c6.742-6.597 10.922-15.789 10.922-25.957 0-2.074-0.174-4.107-0.508-6.086l-45.724-266.852c-0.234-1.306-0.367-2.809-0.367-4.344 0-14.283 11.578-25.861 25.861-25.861 4.311 0 8.375 1.055 11.949 2.92l240.067 126.254c4.902 2.632 10.725 4.178 16.909 4.178s12.007-1.546 17.104-4.273l240.015-126.226c3.431-1.797 7.495-2.852 11.806-2.852 14.283 0 25.861 11.578 25.861 25.861 0 1.535-0.134 3.038-0.39 4.499l-45.732 266.91c-0.304 1.765-0.478 3.798-0.478 5.872 0 10.168 4.18 19.36 10.915 25.95l193.965 189.489c4.894 4.712 7.935 11.321 7.935 18.64 0 13.047-9.661 23.837-22.22 25.607l-268.197 38.807c-12.589 1.879-22.932 9.993-27.906 21.046l-119.304 240.052c-4.040 8.593-12.624 14.435-22.573 14.435-0.282 0-0.563-0.005-0.842-0.014z"  horiz-adv-x="1066" />

    
    <glyph glyph-name="shoucang4" unicode="&#58893;" d="M1025.825978 505.018182c-4.654545 13.963636-13.963636 23.272727-27.927273 23.272727l-307.2 46.545455-139.636363 297.890909c-9.309091 13.963636-23.272727 23.272727-37.236364 23.272727-13.963636 0-27.927273-9.309091-32.581818-23.272727l-139.636364-297.890909-311.854545-46.545455c-9.309091 4.654545-23.272727-4.654545-27.927273-18.618182-4.654545-13.963636 0-27.927273 9.309091-37.236363l223.418182-232.727273-55.854546-325.818182c0-13.963636 4.654545-27.927273 13.963637-37.236364 18.618182-4.654545 32.581818-4.654545 41.890909 0l274.618182 153.6 274.618182-153.6c9.309091-4.654545 18.618182-4.654545 23.272727-4.654545 9.309091 0 13.963636 0 23.272727 4.654545 9.309091 9.309091 18.618182 23.272727 13.963636 37.236364l-51.2 325.818182 223.418182 228.072727c9.309091 13.963636 13.963636 27.927273 9.309091 37.236364z m-302.545454-228.072727c-9.309091-9.309091-13.963636-18.618182-9.309091-32.581819l41.890909-269.963636-223.418182 130.327273c-9.309091 4.654545-23.272727 4.654545-37.236364 0l-228.072727-125.672728 46.545455 269.963637c0 9.309091 0 23.272727-9.309091 32.581818L113.535069 472.436364 374.189615 509.672727c4.654545 0 4.654545 0 9.30909 4.654546 4.654545 0 4.654545 4.654545 9.309091 4.654545V523.636364l4.654546 4.654545L513.825978 774.981818l111.709091-242.036363c4.654545-9.309091 13.963636-18.618182 27.927273-18.618182l256-41.890909-186.181818-195.490909z"  horiz-adv-x="1027" />

    
    <glyph glyph-name="youhuiquan" unicode="&#58916;" d="M586.24-99.712c-46.08 0-89.408 17.92-121.984 50.56L35.2 373.632C11.84 397.12 0 420.608 0 443.584V810.112C0 865.92 56.96 896 110.592 896h366.528c16.512 0 47.104 0 69.824-22.784l422.912-419.712a168.704 168.704 0 0 0 0-241.088l-261.696-261.568a171.2 171.2 0 0 0-121.92-50.56zM110.592 846.656c-25.408 0-61.248-11.328-61.248-36.544v-366.528c0-9.088 7.488-21.824 20.672-35.008l428.928-422.72c46.72-46.72 127.808-46.72 174.464-0.128l261.632 261.568a119.872 119.872 0 0 1-0.192 171.264L512.064 838.272c-6.976 7.04-18.112 8.384-34.944 8.384H110.592zM295.936 452.16c-81.536 0-147.968 66.432-147.968 147.968S214.4 748.032 295.936 748.032s147.968-66.368 147.968-147.968-66.432-147.904-147.968-147.904z m0 246.528c-54.4 0-98.624-44.224-98.624-98.624s44.224-98.624 98.624-98.624 98.624 44.224 98.624 98.624c0 54.464-44.224 98.624-98.624 98.624zM715.008 180.992a24.448 24.448 0 0 0-17.344 7.168L500.416 385.408a24.576 24.576 0 1 0 34.752 34.88l197.248-197.312a24.512 24.512 0 0 0-17.408-41.984z"  horiz-adv-x="1024" />

    
    <glyph glyph-name="shoucang" unicode="&#58882;" d="M512 853.333333c6.4 0 21.333333-2.133333 27.733333-17.066666L642.133333 618.666667c14.933333-32 44.8-55.466667 81.066667-59.733334l232.533333-36.266666c17.066667-2.133333 23.466667-14.933333 25.6-21.333334 2.133333-6.4 4.266667-19.2-6.4-32l-172.8-177.066666c-23.466667-23.466667-34.133333-57.6-27.733333-91.733334L810.666667-49.06666700000005c2.133333-12.8-2.133333-21.333333-6.4-25.6-6.4-6.4-14.933333-10.666667-23.466667-10.666666-4.266667 0-10.666667 2.133333-14.933333 4.266666l-196.266667 108.8c-19.2 10.666667-38.4 14.933333-57.6 14.933334-19.2 0-38.4-4.266667-55.466667-14.933334l-196.266666-108.8c-4.266667-2.133333-10.666667-4.266667-14.933334-4.266666-8.533333 0-17.066667 4.266667-23.466666 10.666666-4.266667 4.266667-8.533333 12.8-6.4 25.6L256 198.39999999999998c6.4 34.133333-4.266667 66.133333-27.733333 91.733333L51.2 469.333333c-12.8 12.8-8.533333 27.733333-6.4 32 2.133333 6.4 8.533333 19.2 25.6 21.333334l232.533333 36.266666c36.266667 6.4 66.133333 27.733333 81.066667 59.733334l102.4 217.6c4.266667 14.933333 19.2 17.066667 25.6 17.066666m0 42.666667c-27.733333 0-53.333333-14.933333-66.133333-42.666667l-102.4-217.6c-8.533333-19.2-27.733333-32-49.066667-36.266666L64 565.333333c-59.733333-10.666667-85.333333-83.2-42.666667-125.866666l172.8-177.066667c14.933333-14.933333 21.333333-34.133333 17.066667-55.466667L170.666667-40.53333299999997c-6.4-49.066667 29.866667-87.466667 72.533333-87.466667 12.8 0 23.466667 2.133333 36.266667 8.533333l196.266666 108.8c10.666667 6.4 23.466667 8.533333 36.266667 8.533334 12.8 0 25.6-2.133333 36.266667-8.533334l196.266666-108.8c10.666667-6.4 23.466667-8.533333 36.266667-8.533333 42.666667 0 81.066667 38.4 72.533333 87.466667l-40.533333 247.466666c-4.266667 19.2 2.133333 40.533333 17.066667 55.466667l172.8 179.2c42.666667 42.666667 17.066667 115.2-42.666667 125.866667l-232.533333 36.266666c-21.333333 4.266667-38.4 17.066667-49.066667 36.266667L578.133333 853.333333C565.333333 881.066667 539.733333 896 512 896z"  horiz-adv-x="1025" />

    
    <glyph glyph-name="daishouhuolihe" unicode="&#58881;" d="M991.903134 703.918758H860.615955c3.599648 17.598281 4.19959 35.796504 1.799825 53.694756-4.699541 34.996582-20.398008 66.693487-45.295577 91.591056C787.123133 879.301631 746.927058 895.90001 704.131237 895.90001s-82.991895-16.598379-113.088956-46.69544l-78.992286-78.992286-78.992286 78.992286c-62.393907 62.393907-163.883996 62.393907-226.277902 0-38.796211-38.796211-54.194708-93.690851-43.595743-145.285812H31.996875c-17.698272 0-31.996875-14.298604-31.996875-31.996875v-191.981252c0-17.698272 14.298604-31.996875 31.996875-31.996876h32.196856c-0.09999-18.998145-0.19998-44.695635-0.19998-72.692901 0-17.698272 14.298604-31.996875 31.996875-31.996875s31.996875 14.298604 31.996875 31.996875c0 28.097256 0.09999 53.794747 0.199981 72.692901H351.965628v-511.950004H223.978127c-51.994922 0-95.990626 33.296748-95.990626 72.692901v120.988184c0 17.698272-14.298604 31.996875-31.996875 31.996876s-31.996875-14.298604-31.996875-31.996876v-120.988184c0-75.392637 71.792989-136.686652 159.984376-136.686652h575.943756c88.191388 0 159.984377 61.294014 159.984376 136.686652V375.150864v72.692901h31.996875c17.698272 0 31.996875 14.298604 31.996876 31.996876V671.921883c0 17.598281-14.298604 31.996875-31.996876 31.996875zM636.237867 803.908993c37.396348 37.396348 98.290401 37.396348 135.78674 0 26.297432-26.297432 34.596621-65.593594 22.497803-99.990235H536.947564c0.799922 0.999902 1.599844 1.999805 2.299775 2.999707l96.990528 96.990528zM251.975393 803.908993c37.396348 37.396348 98.290401 37.396348 135.78674 0l78.992286-78.992286-20.99795-20.997949H229.47759c-12.198809 34.396641-3.999609 73.492823 22.497803 99.990235z m643.937116-428.758129v-366.464212c0-39.396153-43.995704-72.692901-95.990626-72.692901H671.934381V175.570354c0 17.698272-14.298604 31.996875-31.996875 31.996876s-31.996875-14.298604-31.996875-31.996876V-64.006249H415.959379V447.943755h191.981252v-149.385411c0-17.698272 14.298604-31.996875 31.996875-31.996875s31.996875 14.298604 31.996875 31.996875V447.943755h223.978128v-72.792891zM959.906259 511.937506H63.993751V639.925007h141.286202c1.299873-0.19998 2.699736-0.299971 3.99961-0.29997 1.299873 0 2.699736 0.09999 3.999609 0.29997H959.906259v-127.987501zM95.990626 189.069036c17.698272 0 31.996875 14.298604 31.996875 31.996876v70.493115c0 17.698272-14.298604 31.996875-31.996875 31.996876s-31.996875-14.298604-31.996875-31.996876v-70.493115c0-17.598281 14.298604-31.996875 31.996875-31.996876z"  horiz-adv-x="1024" />

    
    <glyph glyph-name="sousuo" unicode="&#58975;" d="M920.4 12.4L734.9 197.9c55.4 63.9 89.1 147 89.1 238.1 0 201-163 364-364 364S96 637 96 436s163-364 364-364c91.2 0 174.3 33.7 238.1 89.1l185.5-185.5c4.7-4.7 11.2-7.6 18.4-7.6 14.4 0 26 11.6 26 26 0 7.2-2.9 13.7-7.6 18.4zM460 124c-172 0-312 140-312 312s140 312 312 312 312-140 312-312-140-312-312-312z"  horiz-adv-x="1024" />

    
    <glyph glyph-name="dangao" unicode="&#58964;" d="M1053.355969 56.955365c-6.994379 54.499994-81.354323 94.232659-138.892022 103.026686-0.446721 0.063817-0.842389-0.102108-1.28911-0.07658l19.770607 165.580426 0.855152 0.178688a28.84543 28.84543 0 0 1-0.58712 2.054918l10.389461 86.983011 0.753044 0.280796 0.804098 17.473183-309.705468 150.608882 27.900934 48.411822a27.658428 27.658428 0 0 1-2.680328 31.627865c-20.127984 24.046367-56.669783 73.709008-51.628214 112.165327 1.135948 8.666392 3.024941 23.165688 14.435478 33.223298 10.440514 9.215221 27.071308 13.784542 41.251518 8.360069 8.385596-3.20363 13.222949-8.845081 17.307258-13.746251 14.62693-17.524237 17.856087-38.162759 18.545314-50.262524 1.697541-4.326814 5.016042-10.848945 10.568149-11.921076 5.054332-0.970023 10.044847 2.259133 18.2007 10.836182 6.471077 6.802927 16.24789 17.077516 26.956437 20.689576 11.321193 3.829039 26.331027 1.046604 35.737701-6.585948 18.060302-14.677984 14.716275-49.075521 5.360655-68.259008-12.125291-24.824939-41.545077-40.664398-75.253387-41.340862a12.584776 12.584776 0 0 1-12.150818-11.691334 12.891099 12.891099 0 0 1 13.146368-13.835595c43.383016 0.918969 80.67786 21.863815 97.18102 55.674232 15.137469 31.015219 16.005385 76.338282-12.189109 99.261464-16.2096 13.159132-40.294258 17.588054-59.988284 10.963816-11.627516-3.918384-21.40433-11.67857-28.88372-18.762293-6.726346 21.429857-20.561941 51.104912-43.638285 62.030438-23.561356 11.142505-52.559947 2.24637-69.050344-12.291216-18.596368-16.388289-21.480911-38.456319-22.859365-49.049995-6.688055-50.824116 25.348241-97.819193 49.54777-125.286168 4.799063-5.449999 5.539344-13.26124 1.914519-19.553628l-22.757257-39.490159-63.089805 30.683369-4.339578 2.067681L218.306298 553.939149l-8.513231-2.233606-2.935597-16.898827 1.340164-0.893443-0.051054-99.618841c-0.382904-2.57822-0.446721-5.756323 0-9.317329l-0.114871-238.817186c0-14.448242 7.721896-27.964751 20.153511-35.278216L528.700993-26.032681a42.349175 42.349175 0 0 1 37.435242-2.693091l320.133219 131.182889a38.813696 38.813696 0 0 1 23.791098 31.283251l0.127634 1.110422 0.089345-0.025527c51.845193-7.683606 112.982188-43.816974 117.768487-81.124581 4.56932-35.69941-42.387466-71.858306-132.25502-101.814157-260.744818-86.919194-697.650974 4.122599-820.078126 170.941081-31.79379 43.306435-41.532314 78.80163-28.973065 105.502798 20.791684 44.148824 95.419661 57.320719 124.81392 60.830672 6.675292 0.791335 10.325643 6.637002 10.325643 13.350584v0.114872a11.831732 11.831732 0 0 1-13.401638 11.933839c-33.542385-3.943911-118.827855-19.349412-145.209936-75.291678C6.381732 203.441648 17.154096 159.177953 54.908425 107.728427c95.534532-130.161812 360.47853-215.562153 603.111992-215.562153 87.850927 0 172.842837 11.193558 245.786037 35.507959 105.69425 35.227162 156.046118 78.72505 149.549515 129.281132z m-819.695223 333.381695c1.825175-0.970023 3.509953-2.016627 5.577634-2.871779 15.826696-6.52213 31.015219-2.016627 44.39133 1.95281 15.852223 4.709718 29.534657 8.755737 46.573882-1.174239 13.031497-7.607025 14.946017-15.788406 17.817797-28.168966 3.803512-16.311708 8.525994-36.605616 40.485709-52.074936 30.032432-14.537586 53.19812-8.628102 70.084184-4.314051 14.971544 3.816276 20.498124 4.82459 27.262761-1.480562 5.871194-5.501053 7.47939-12.023184 9.827868-23.089107 4.352341-20.523651 10.376697-48.488402 61.328447-73.440975l-6.075409-88.463573-317.312493 213.698687 0.03829 59.426691z m676.757183-38.23934c-14.869436 6.790163-34.512408 6.981615-58.584303 0.459485-39.222127-10.606439-43.114983-29.585711-43.740393-48.131025-0.319087-9.598125-0.459485-13.567563-9.291802-18.392152-12.176345-6.624238-14.8822-4.543793-23.969787 2.310187-8.806791 6.662529-20.70234 15.737352-42.361939 14.690747-27.735009-1.403981-37.128918-21.595782-43.982898-36.350347-5.883957-12.648593-8.972716-17.919904-15.916041-19.19625-10.695783-1.9911-14.052575-0.114871-20.766157 3.599297-7.977165 4.428922-18.979272 10.453277-41.174936 9.712996-9.840631-0.344614-17.970958-2.782435-24.671777-6.496603l2.705854 39.362524 328.123148 111.667552-6.368969-53.236411zM582.639395 206.147503l0.867915-0.063818c0.242506 2.897306 3.024941 28.334891 27.977515 29.202807 15.111942 0.536066 21.098007-2.744145 27.92646-6.534893 8.462177-4.684192 17.996485-9.993793 37.767092-6.368969 20.574705 3.790749 28.258311 20.281145 34.4103 33.529621 7.10925 15.239577 10.848945 21.046953 22.144611 21.634073 12.048711 0.510539 18.149647-3.880093 25.705618-9.585362 10.529858-7.938875 24.952573-18.851637 51.551634-4.339578 21.646836 11.806205 22.208428 28.730559 22.591332 39.93688 0.382904 11.474355 0.599883 17.79227 24.888756 24.352691 29.80269 8.040983 43.612758 2.105972 48.513929-4.428922l-10.68302-89.522941-320.043875-120.716848 6.381733 92.905259z m-40.728216 394.033678l57.754677-28.092385-55.52107-96.338631a12.763465 12.763465 0 1 1 22.119084-12.737938l56.414513 97.895774L899.313714 426.355557l-320.962843-109.242493-326.323499 218.20419 289.883807 64.863927z m21.32775-303.668349l-4.326815-63.038752c-31.0918 17.524237-34.640043 33.810418-38.252103 50.951751-2.501639 11.793441-5.335128 25.156789-17.345549 36.414165-17.281731 16.222363-35.214399 11.64028-51.028331 7.594261-15.21405-3.892857-30.976929-7.926112-52.649291 2.565456-20.983136 10.146954-23.395431 20.523651-26.739459 34.869786-3.24192 13.937703-7.275175 31.270488-29.828216 44.42962-26.573533 15.507609-48.833015 8.908898-66.701866 3.599297-12.34227-3.650351-20.255618-5.769086-27.403159-2.820726-11.219085 4.620374-14.422715 11.219085-15.29063 15.609717l0.03829 90.161114 329.527129-220.335689z m-322.098793-123.626918a15.469319 15.469319 0 0 0-7.581498 13.274003l0.051054 113.977739L548.918321 87.817423l-6.330678-92.267086c-0.306323 0.153162-0.638173 0.242506-0.944497 0.421194L241.140136 172.885914z m643.559412-36.120605a13.274003 13.274003 0 0 0-8.130327-10.695783L568.484713-0.173902l5.85843 85.425868 318.563312 120.155256-8.206907-68.641913z"  horiz-adv-x="1065" />

    
    <glyph glyph-name="dangao1" unicode="&#58965;" d="M135.284612 598.624569c46.120085-19.109808 200.36874-76.759915 382.18158-76.759914 178.97042 0 318.846633 43.496313 362.809395 58.93284 7.85674 2.754961 11.821552 11.442562 8.760484 19.18269a14.518206 14.518206 0 0 1-18.249793 8.454377c-41.87832-14.50363-180.384342-57.416883-353.305509-57.416882-174.480854 0-326.659644 56.469409-370.913936 74.558861a14.605665 14.605665 0 0 1-18.847431-7.419445 14.489053 14.489053 0 0 1 7.56521-19.532527zM475.558719 709.697594m-20.961025 0a20.961025 20.961025 0 1 1 41.92205 0 20.961025 20.961025 0 1 1-41.92205 0ZM653.81489 709.697594m-20.961025 0a20.961025 20.961025 0 1 1 41.92205 0 20.961025 20.961025 0 1 1-41.92205 0ZM460.982206 374.437808m-20.961025 0a20.961025 20.961025 0 1 1 41.92205 0 20.961025 20.961025 0 1 1-41.92205 0ZM286.064057 389.01432m-20.961025 0a20.961025 20.961025 0 1 1 41.92205 0 20.961025 20.961025 0 1 1-41.92205 0ZM635.900356 374.437808m-20.961025 0a20.961025 20.961025 0 1 1 41.92205 0 20.961025 20.961025 0 1 1-41.92205 0ZM825.395018 389.01432m-20.961025 0a20.961025 20.961025 0 1 1 41.92205 0 20.961025 20.961025 0 1 1-41.92205 0ZM932.896797 429.697367v34.283957c14.576512-15.319915 17.97284-29.34252 33.292755-30.741865 9.999488-0.860014 20.509153 3.42548 25.917039 11.821552 12.608683 19.51795 5.130932 56.892128-9.183203 82.1678-6.005523 10.611701-4.343801 32.418164-3.163103 53.495801 1.763758 31.791374 3.979388 67.809936-15.917552 91.438463-9.839146 11.690363-31.193737 23.890904-61.73153 35.522961 6.734349 10.086947 9.722534 17.812498 9.824569 18.074875l4.13973 11.573751-10.69916 6.0201c-82.794591 46.469922-134.031032 21.923075-153.330335 8.089964a59.865737 59.865737 0 0 1-16.748413 3.921082 53.393765 53.393765 0 0 1-6.399089 38.350804c-6.2679 10.465936-21.864769 28.205552-56.075843 29.371673-17.229438 0.553907-31.150007-3.819046-41.29526-13.075132a52.854434 52.854434 0 0 1-13.220897-18.978619 50.099473 50.099473 0 0 1-29.677779 6.952996c-11.821552-1.020356-20.961025-6.282477-27.476726-11.66121-7.244527 8.366918-17.92911 16.71926-34.06531 23.978363-21.660698 9.73711-40.099986 10.655431-54.763957 2.769538-8.935402-4.824826-15.961281-12.739872-20.800683-23.32242-9.912028 9.78084-21.514932 15.42195-33.132413 15.698904-10.393053 0.218648-26.237722-4.110577-41.309836-24.3282-17.739616 9.795416-56.688057 19.18269-136.46531-4.72279l-19.634562-5.903487 11.99647-16.617224c0.451872-0.62679 2.959032-4.066847 7.055032-9.212356-62.73731-14.605665-112.282875-35.420925-143.69526-61.600342-55.070064-45.886861-26.398064-122.690505-17.083673-143.69526-4.999744-18.745395-11.981893-51.979843-5.539075-71.905936-28.817765-11.311374-46.265851-32.461893-47.752654-56.017537-0.393566-6.034676 3.192256-11.427986 3.192256-16.369424v-55.740583c0-24.61973 12.098505-47.140441 33.700897-58.743345C117.719915 251.120512 254.724555 188.295744 451.871886 170.920541v-61.585765c-43.729537-5.116356-102.822719-17.448085-102.822719-46.93637 0-0.320683 0.947473-0.597637 0.96205-0.918321H349.836299v-80.476925c0-46.105509 86.365836-70.987616 167.629893-70.987616S685.096085-65.248114 685.096085-19.434135V61.494662h-0.174918c0.014577 0.320683 2.565466 0.58306 2.565466 0.91832 0 30.071345-60.711174 42.330192-104.440711 47.257054v56.979587c215.397125 3.833623 335.070292 50.682534 389.236612 79.165039C994.278491 257.35926 1005.779359 280.01116 1005.779359 304.893267V367.601423h3.192257C1006.566491 390.661466 991.202847 411.024854 932.896797 429.697367z m-140.298932 308.730533c18.905737 4.810249 47.431972 4.883132 86.292954-14.066334a78.611132 78.611132 0 0 0-33.088684-29.211331c-15.859246-7.404868-37.549096-11.136456-66.920768-5.160086 1.311886 7.638093 1.661722 14.634819 1.180697 21.063061-0.568484 7.638093-2.288512 14.474477-5.34958 20.348811a73.14494 73.14494 0 0 0 17.885381 7.025879z m-219.318207-1.268156c1.822064 6.559431 2.623772 13.731075 1.443075 21.412897l-0.029153 0.131188c1.005779 1.355616 3.80447 4.547872 7.944199 7.127915 2.448854 1.530534 5.203815 2.84242 8.512684 3.13395 4.912285 0.451872 10.291018-1.29731 14.940925-4.751943 1.632569-1.209851 3.17768-2.609196 4.562448-4.212612a18.366406 18.366406 0 0 1 28.803189 1.341039c2.040712 2.769537 3.396327 6.063829 3.702434 9.664228 0.568484 7.069609 3.42548 13.279203 8.031658 17.477238 4.329224 3.964811 11.194762 5.801452 20.654919 5.480769 15.115843-0.510178 26.485523-5.903488 32.039174-15.188726 4.096-6.880114 4.606178-15.276185 1.326463-21.923075-0.495601-0.991203-0.728826-2.069865-1.049509-3.104797-1.836641-5.961794-1.107815-12.506648 2.405124-17.827075 4.110577-6.2679 11.530021-9.984911 18.774548-9.503886 6.180441 0.306107 17.083673-0.014577 22.141723-5.903487 0.816285-0.947473 1.370192-2.244783 1.938676-3.542093 2.434278-5.611957 2.667502-14.255829 0.378989-25.24652-3.483786-16.646377-8.687601-20.582036-10.742889-21.500355-3.527516-1.530534-9.78084 0.058306-17.185709 4.402106a21.179673 21.179673 0 0 1-23.453608-1.239003c-6.93842-5.160085-10.057794-13.964299-7.973353-22.433253 2.536313-10.218135 0.029153-14.153794-10.728313-16.894178-14.008028-3.51294-22.170875 0.276954-27.360114 12.754449a20.858989 20.858989 0 0 1-17.185708 12.754448 21.602391 21.602391 0 0 1-19.984398-9.372698c-2.346819-3.454633-6.165865-7.827587-11.019844-9.052014-4.926861-1.239004-13.060555 2.186477-23.803445 9.868299 2.157324 3.731587 4.227189 7.827587 6.049253 12.710719 6.705196 18.031146 6.544854 33.146989-0.466448 44.953964-4.008541 6.748925-10.086947 12.011046-17.914534 15.582292 2.230206 3.906505 3.964811 8.279459 5.247544 12.900214z m-170.720114-39.764726a18.045722 18.045722 0 0 1 5.116356 33.700897 21.558662 21.558662 0 0 0-7.52148 6.384512c-6.238747 8.425224-3.454633 19.138961-2.026135 23.103772 1.224427 1.851217 2.769537 3.935658 4.489566 5.990947 4.300071 5.101779 9.824569 9.926605 15.101266 9.722534 4.314648-0.102036 9.372698-3.367174 14.139218-8.381495 2.769537-2.915302 5.466192-6.253324 7.783857-10.305594a18.657936 18.657936 0 0 1 19.51795-9.052014 18.541324 18.541324 0 0 1 14.970079 15.261608c0.233224 1.443075 0.612214 3.206833 1.034932 4.985167 1.617993 6.850961 4.781096 15.232456 11.005267 18.585054 7.798434 4.198036 20.057281 0.320683 28.96353-3.687858 10.436783-4.693637 18.278947-10.028641 23.511915-15.786363 3.993964-4.38753 6.515701-9.022861 7.259103-13.83311 0.903744-5.874335-0.889167-11.180185-3.440057-15.451103-1.457651-2.434278-3.104797-4.635331-4.810249-6.151289a18.876584 18.876584 0 0 1-5.539075-19.415914 18.366406 18.366406 0 0 1 15.144997-12.943943c4.023117-0.58306 11.136456-2.157324 13.614462-6.326207 2.21563-3.731587 1.574263-10.801196-1.807487-19.882363-2.813267-7.56521-7.740128-16.96706-15.232456-18.687089-6.836384-1.530534-16.67553 2.696655-25.231943 10.830349a18.3081 18.3081 0 0 1-21.019331 3.17768c-6.996726-3.483786-11.107302-11.063573-10.232712-18.832854 0.903744-8.031658-0.408142-12.521224-1.924099-14.037182-1.58884-1.603416-5.816028-2.201053-11.32595-1.603416-12.91479 1.399345-21.631544 4.985167-23.934634 9.839146-2.055288 4.372954-0.160342 12.229694 4.956014 21.077637 1.355616 2.099018 2.259359 3.629552 2.682079 4.3438l-24.765495 15.334492c-0.96205-1.457651-1.88037-2.915302-2.740384-4.372954-7.710975-11.734093-23.32242-30.158804-35.668726-30.348299-5.232968 0.072883-11.457139 4.562448-17.258591 13.803957-3.454633 5.524498-7.127915 13.162591-4.883132 18.26437 2.667502 6.136712 14.197523 11.763246 30.071345 14.693125z m-61.658647 64.049196c19.357609-2.201053 25.960769-8.556413 26.091957-8.687602l0.276954 0.247801a54.807687 54.807687 0 0 1 1.778334-17.783345c1.428498-5.145509 3.687858-10.232712 7.171644-14.984655-12.812754-4.999744-24.809224-13.002249-30.435758-25.815004-0.408142-0.91832-0.466448-1.9241-0.787131-2.871573-17.185708 7.390292-34.327687 20.800683-48.875046 34.721253a359.835786 359.835786 0 0 0-23.70141 25.100754l-2.434277 2.798691c33.249025 8.177423 55.915502 8.979132 70.914733 7.27368zM115.02326 660.691359c14.416171 11.99647 55.973808 39.910491 146.508526 59.151488 21.73358-23.162078 53.29173-51.105253 85.593282-60.113537 1.515957-3.527516 3.265139-7.113338 5.568227-10.772043 14.445324-23.045466 31.383231-27.403843 42.446805-27.447573 10.509665 0.174918 20.261352 4.460413 28.788612 10.40763 7.084185-14.736854 22.914278-23.526491 47.052982-26.135687 2.448854-0.262377 4.824826-0.393566 7.098762-0.393566 11.70494 0 21.10679 3.483786 28.00148 10.40763 3.498363 3.51294 7.215374 8.891673 9.226932 16.923331 11.734093-6.253324 24.051246-8.410648 35.114819-5.874334 2.827843 0.655943 5.918064 1.705452 9.11032 3.308868 20.800683-15.80094 36.587046-21.048484 51.761196-17.229438a44.749893 44.749893 0 0 1 20.173893 11.559174c9.285238-13.483274 23.132925-20.713224 39.589808-20.713224 5.043473 0 10.334747 0.67052 15.800939 2.069865 21.15052 5.34958 33.015801 18.93489 33.584285 37.447061 13.512427-4.591601 23.715986-2.682078 30.406605 0.306106 7.798434 3.454633 13.993452 9.868299 18.876584 18.570477 13.410391-2.973609 25.698391-4.314648 36.893153-4.314647 34.152769 0 58.218591 12.200541 74.69005 26.252298 32.505623-11.296797 53.422918-22.272911 60.521679-30.698135 12.448342-14.780584 10.859502-43.394278 9.328968-71.045922-1.472228-26.441794-2.856996-51.425936 7.361139-69.471658 10.378477-18.337253 13.016826-36.266363 12.404612-45.755672a203.983715 203.983715 0 0 0-6.734349 15.130419c-8.060811 19.474221-20.028128 48.947929-47.752654 41.572214-22.02511-5.874335-24.153281-26.514676-25.567203-40.172868-1.807488-17.593851-3.352598-20.203046-12.710719-21.471203-10.874078-1.54511-15.42195 3.308868-24.590577 14.255829-10.1161 12.098505-25.319402 30.406605-56.615174 23.890904-31.383231-6.544854-34.925324-30.348299-37.286719-46.105509-2.390548-16.107046-3.935658-21.850192-17.681309-25.027872-11.923587-2.769537-19.736598 4.43126-35.94568 22.724783-18.351829 20.669495-43.496313 48.977082-89.514363 39.283701-41.397295-8.716754-49.312342-28.584541-53.860214-48.204527-2.623772-11.253068-3.17768-13.599886-20.334235-14.387017-20.392541-0.889167-25.902463 7.973352-35.829067 26.572982C497.452641 472.042135 485.106335 495.145907 451.871886 495.145907c-36.514164 0-49.939132-30.88763-59.749124-53.437494-8.366918-19.255573-12.652413-25.756698-18.366406-25.057025-7.27368 1.034932-11.078149 9.022861-17.987416 27.010277-9.766263 25.333979-23.132925 60.040655-69.996413 71.147958a78.290448 78.290448 0 0 1-17.870805 2.332242c-9.052014 0-16.515189-2.186477-22.564441-6.60316-13.58531-9.882875-14.955502-26.864512-16.063317-40.508128-0.510178-6.340783-1.370192-16.952484-3.921081-18.876584-1.020356-0.772555-4.897708-1.632569-12.987673 0-25.771274 5.160085-26.849936 15.334491-28.482505 30.727288-1.370192 12.943943-3.658705 34.604641-30.523217 38.627758-30.639829 4.635331-42.432228-17.506391-49.443531-30.727288-0.845438-1.603416-1.953253-3.629552-3.075644-5.539075h-0.743402c-0.189495 11.821552 3.148527 33.10326 8.673025 52.490022l1.559687 5.524498-2.609196 5.101779c-0.378989 0.714249-37.898932 75.666676 7.302833 113.332384z m11.063573-184.5678c7.331986 13.862263 11.894434 16.908754 21.150519 15.538562 4.314648-0.641367 5.480769-0.685096 6.778079-12.885637 1.851217-17.535544 5.422463-46.878064 52.198491-56.236185 15.567715-3.119374 27.637068-1.370192 36.499587 5.320427 13.002249 9.809993 14.445324 26.427217 15.523986 39.793879 0.553907 6.880114 1.443075 17.273167 4.183459 19.270149 0.378989 0.247801 3.950235 2.463431 16.602647-0.524754 31.893409-7.56521 40.464399-29.750662 49.516413-53.262577 7.550633-19.590833 16.107046-41.805438 41.076612-45.376683 2.040712-0.29153 3.993964-0.437295 5.859758-0.437295 24.809224 0 35.464655 24.503117 43.394278 42.738334 10.611701 24.430235 17.316897 35.931103 33.001224 35.931104 15.08669 0 20.028128-7.973352 28.876071-24.561424 9.882875-18.483018 23.336996-43.744114 62.883075-41.965779 36.178904 1.676299 43.248512 19.153537 47.373666 36.907729 2.784114 11.99647 4.810249 20.669495 31.485266 26.281452 29.517438 6.165865 44.414633-10.626278 61.687801-30.100498 16.09247-18.147758 34.298534-38.700641 64.296997-31.791374 33.817509 7.813011 37.519943 32.695117 39.968797 49.152 2.288512 15.42195 3.338021 19.547103 14.387018 21.850192 13.599886 2.84242 18.191488-1.982406 28.307587-14.051758 9.941181-11.865281 19.867786-28.04521 47.184171-24.444811 15.08669 2.026135 25.421438 8.891673 25.421437 17.098249v-76.147701c0-7.987929-0.874591-15.319915-7.827587-18.672512-38.831829-18.628783-137.587701-49.880826-374.995359-49.880826-255.103544 0-360.477153 53.073082-392.778705 75.8999-5.509922 3.877352-11.530021 10.261865-11.530021 17.05452v67.474676c14.576512 3.454633 7.85674 6.967573 9.474733 10.028641zM553.907473 166.28521v-78.202989c0-6.632313-11.267644-12.011046-19.240996-12.011047h-37.621979c-7.958776 0-16.019587 5.39331-16.019587 12.011047V168.777794c23.570221-1.486804 47.738078-2.463431 72.882562-2.492584z m-72.882562 11.821552h72.882562-72.882562z m174.918149-197.540897c0-14.576512-52.562904-41.368142-138.476868-41.368143S378.989324-33.719117 378.989324-18.967687v50.420157c42.475957-17.827075 118.579929-19.138961 138.476868-19.138961s96.000911 1.311886 138.476868 19.138961v-50.886605z m-2.405124 81.803388c-12.798178-8.337765-59.355559-20.917295-136.071744-20.917296-76.701609 0-123.258989 12.57953-136.071744 20.917296 8.104541 5.160085 30.989665 13.162591 72.911716 17.695886 3.964811-18.876584 21.602391-33.161566 42.723758-33.161566h37.621978c21.252555 0 38.948441 14.445324 42.782064 33.482249 43.933609-4.445836 67.795359-12.696142 76.103972-18.016569zM976.626335 304.893267c0-14.022605-5.859758-26.777053-18.235218-33.278178-54.108014-28.467929-177.891758-76.206007-404.964669-76.206007-246.066107 0-415.168228 77.53247-477.235017 110.854377C64.063772 312.793737 58.30605 325.460726 58.30605 339.337566v11.530021c0-4.635331 9.328968-7.681822 11.923587-9.256085 98.245694-59.399288 148.12652-71.483217 150.240114-71.993395 91.70084-22.02511 211.461466-33.205295 338.743573-33.205296h2.929879c172.95032 0 237.684612 14.576512 286.501352 28.832342 49.370648 14.430747 98.828754 31.17916 127.98178 53.116811v-13.468697z m-136.188356-12.57953c-46.878064-13.687345-110.125552-28.322164-279.256826-28.569965-126.786505-0.276954-244.812527 11.632057-334.982833 33.292755-0.481025 0.116612-48.787587 12.448342-142.427103 69.063516-7.27368 4.402107-17.63758 11.763246-24.546847 24.765494-2.273936 4.256342-6.0201 11.413409-5.553651 18.64336 0.787132 12.215117 14.022605 24.984142 32.870035 31.76222l-8.556412 13.672769c3.673281-3.090221 9.474733-4.781096 9.474733-5.145509v-51.178135c0-16.252811 11.544598-31.528996 24.765494-40.887117 42.942406-30.348299 154.715103-81.234904 408.696257-81.234904 243.165381 0 345.623687 33.05953 386.700299 52.766975C924.646491 337.442619 932.896797 355.080199 932.896797 374.21916v23.526491c43.729537-17.506391 43.671231-30.275416 43.729538-34.02158 0.160342-9.314391-11.151032-34.867018-136.188356-71.410334z"  horiz-adv-x="1024" />

    
    <glyph glyph-name="tubiaolunkuo-" unicode="&#58891;" d="M729.6-64H230.4C134.4-64 64 0 64 76.79999999999995V691.2C64 768 134.4 832 230.4 832h505.6C825.6 832 896 768 896 691.2v-275.2l-32-12.8-70.4 64c-6.4 6.4-6.4 19.2 0 25.6 6.4 6.4 19.2 6.4 25.6 0l38.4-32V691.2c0 57.6-57.6 102.4-128 102.4H230.4c-70.4 0-128-44.8-128-102.4v-614.4c0-57.6 57.6-102.4 128-102.4h505.6c70.4 0 128 44.8 128 102.4v153.6c0 12.8 6.4 19.2 19.2 19.2s19.2-6.4 19.2-19.2v-153.6C896 0 825.6-64 729.6-64zM364.8 620.8c0-6.4-6.4-12.8-6.4-12.8 0-6.4-6.4-12.8-6.4-12.8h153.6c-12.8 0-12.8 6.4-19.2 6.4s-12.8 12.8-12.8 19.2l-12.8 12.8s0 6.4 6.4 12.8 19.2 6.4 32 0c0-6.4 6.4-12.8 12.8-19.2l12.8-12.8c6.4-12.8 12.8-19.2 6.4-25.6h147.2c12.8 0 19.2-6.4 19.2-19.2 0-12.8-6.4-19.2-19.2-19.2H518.4v-32h140.8c12.8 0 19.2-6.4 19.2-19.2 0-12.8-6.4-19.2-19.2-19.2H518.4V448h140.8c12.8 0 19.2-6.4 19.2-19.2 0-12.8-6.4-19.2-19.2-19.2H518.4v-32h160c12.8 0 19.2-6.4 19.2-19.2 0-12.8-6.4-19.2-19.2-19.2H326.4v-12.8c0-6.4 0-12.8-6.4-12.8h-12.8c-12.8 0-19.2 6.4-19.2 19.2V505.6c-6.4-6.4-12.8-12.8-12.8-19.2l-19.2-19.2c-6.4-6.4-12.8-6.4-19.2-6.4-6.4 0-6.4 0-12.8 6.4 0 0-6.4 6.4-6.4 12.8s6.4 12.8 12.8 19.2c6.4 6.4 19.2 12.8 25.6 25.6 12.8 12.8 19.2 25.6 25.6 38.4 12.8 12.8 19.2 25.6 32 38.4 6.4 12.8 12.8 25.6 19.2 32 6.4 6.4 6.4 12.8 12.8 12.8h19.2l6.4-6.4s0-12.8-6.4-19.2z m307.2-403.2v-25.6c0-6.4-6.4-12.8-6.4-12.8-6.4-6.4-6.4-6.4-12.8-6.4H300.8c-6.4 0-12.8 6.4-12.8 6.4-6.4 6.4-6.4 6.4-6.4 12.8V262.4v25.6c0 6.4 6.4 12.8 6.4 12.8 6.4 6.4 6.4 6.4 12.8 6.4H652.8c6.4 0 12.8-6.4 12.8-6.4 6.4-6.4 6.4-6.4 6.4-12.8v-70.4z m-38.4 44.8c0 6.4-6.4 6.4-12.8 6.4H320c-6.4 0-6.4 0-6.4-6.4v-57.6H627.2v57.6z m-307.2 256h153.6v32H326.4v-32z m0-70.4h153.6v32H326.4V448z m0-70.4h153.6v38.4H326.4v-38.4zM876.8 396.8c-6.4 0-12.8 0-12.8 6.4-6.4 6.4-6.4 19.2 0 25.6l64 64c6.4 6.4 19.2 6.4 25.6 0s6.4-19.2 0-25.6l-64-64c0-6.4-6.4-6.4-12.8-6.4z"  horiz-adv-x="1024" />

    
    <glyph glyph-name="star" unicode="&#58907;" d="M1020.14772 494.196844a73.692177 73.692177 0 0 1-59.004939 48.349491l-266.418179 39.613945-115.801993 240.435528A74.172152 74.172152 0 0 1 511.982081 864.00166c-28.670513 0-54.74916-16.159162-66.940527-41.405852l-115.801993-240.435528-266.450178-39.613945A73.596182 73.596182 0 0 1 3.848441 494.196844a70.620337 70.620337 0 0 1 17.183108-73.116208l195.253872-194.933887-45.277652-270.417972a71.164308 71.164308 0 0 1 30.334427-70.492344 75.228098 75.228098 0 0 1 78.363935-4.191782L511.982081 6.094163999999978l232.307949-125.049513a75.740071 75.740071 0 0 1 78.363935 4.191782 71.196307 71.196307 0 0 1 30.302428 70.492344l-45.309649 270.417972 195.317868 194.933887c19.294999 19.294999 25.918655 47.517535 17.183108 73.116208z m-265.362234-217.780703a70.908322 70.908322 0 0 1-20.062959-61.88479l45.309649-270.417972-232.307949 124.985516a75.548081 75.548081 0 0 1-71.51629 0l-232.307949-124.985516 45.30965 270.417972a70.780328 70.780328 0 0 1-20.030961 61.88479L73.924806 471.350029l266.418179 39.677941a73.788172 73.788172 0 0 1 55.773107 40.573896L511.982081 791.973396l115.833991-240.403529a73.916166 73.916166 0 0 1 55.741109-40.573895l266.482176-39.677942-195.253871-194.901889z"  horiz-adv-x="1024" />

    
    <glyph glyph-name="check-circle" unicode="&#59261;" d="M699 543h-46.9c-10.2 0-19.9-4.9-25.9-13.3L469 311.70000000000005l-71.2 98.8c-6 8.3-15.6 13.3-25.9 13.3H325c-6.5 0-10.3-7.4-6.5-12.7l124.6-172.8c12.7-17.7 39-17.7 51.7 0l210.6 292c3.9 5.3 0.1 12.7-6.4 12.7zM512 832C264.6 832 64 631.4 64 384s200.6-448 448-448 448 200.6 448 448S759.4 832 512 832z m0-820c-205.4 0-372 166.6-372 372s166.6 372 372 372 372-166.6 372-372-166.6-372-372-372z"  horiz-adv-x="1024" />

    
    <glyph glyph-name="shanchu" unicode="&#58904;" d="M790.864 577.904c0.72-8.832 1.136-17.808 1.136-26.896v-444.16c0-73.04-35.824-138.8-112-138.8h-336c-76.176 0-112 65.776-112 138.8v444.16a235.104 235.104 0 0 0 1.68 26.896H176v111.04l168 0.128V710.4c0 49.472 45.84 89.6 102.4 89.6h131.2c56.56 0 102.4-40.112 102.4-89.6v-20.592l168-0.736v-111.168h-57.136zM624 710.4c0 18.464-21.248 34.064-46.4 34.064h-131.2c-25.152 0-46.4-15.6-46.4-34.064v-21.344h224V710.4z m112-159.408a190.4 190.4 0 0 1-1.872 26.896H289.888a188.544 188.544 0 0 1-1.888-26.88v-444.16c0-42.592 10.72-83.28 56-83.28h336c45.344 0 56 40.704 56 83.28v444.16z m-112-28.336h56v-443.728H624V522.672z m-140 0h56v-443.728h-56V522.672z m-140 0H400v-443.728h-56V522.672z"  horiz-adv-x="1024" />

    
    <glyph glyph-name="cake" unicode="&#58982;" d="M994 265.3H30c-9.9 0-18 8.1-18 18s8.1 18 18 18h964c9.9 0 18-8.1 18-18s-8-18-18-18zM925.6 265.3H98.4c-8.1 0-15.2 5.4-17.3 13.2-4.5 15.9-6.7 32.4-6.7 49 0 98.2 78.4 178.5 175.9 181.5C277 567.8 323 616.1 380.7 645.7c5.4 2.8 11.9 2.6 17.2-0.4 5.3-3 8.7-8.6 9-14.7 2.9-55.9 49-99.7 105.1-99.7s102.2 43.8 105.1 99.7c0.3 6.1 3.7 11.6 9 14.7 5.3 3 11.8 3.2 17.2 0.4C701 616.1 747 567.8 773.7 509c97.5-3 175.9-83.3 175.9-181.5 0-16.6-2.3-33.1-6.7-49-2.1-7.9-9.2-13.2-17.3-13.2z m-812.9 36h798.6c1.6 8.6 2.4 17.4 2.4 26.2 0 80.3-65.3 145.6-145.6 145.6-1.6 0-3.4 0-5.5-0.1-7.6-0.3-14.5 4.2-17.4 11.2-19.4 48-53.2 88.7-96.4 116.8-15.6-61.3-71.2-106.1-136.8-106.1-65.6 0-121.2 44.8-136.8 106.1-43.2-28-77-68.8-96.4-116.8-2.8-7-9.8-11.5-17.4-11.2-2.1 0.1-3.8 0.1-5.5 0.1-80.3 0-145.6-65.3-145.6-145.6 0-8.9 0.8-17.6 2.4-26.2zM512 494.9c-77.9 0-141.2 63.3-141.2 141.2S434.1 777.3 512 777.3c77.9 0 141.2-63.3 141.2-141.2S589.9 494.9 512 494.9z m0 246.4c-58 0-105.2-47.2-105.2-105.2S454 530.9 512 530.9s105.2 47.2 105.2 105.2S570 741.3 512 741.3zM519.8 629.9c-1.5 0-3.1 0.2-4.7 0.6-9.6 2.6-15.3 12.4-12.7 22 18.5 68.8-15 150.7-83.2 203.9-7.8 6.1-9.2 17.4-3.1 25.3 6.1 7.8 17.4 9.2 25.3 3.1 39.3-30.7 69.2-69.9 86.3-113.6 17.1-43.4 20.4-87.7 9.5-128.1-2.2-7.9-9.5-13.2-17.4-13.2zM512-23.1c-9.9 0-18 8.1-18 18V204.3c0 9.9 8.1 18 18 18s18-8.1 18-18v-209.4c0-10-8.1-18-18-18zM642.2-25.4c-1.6 0-3.3 0.2-5 0.7-9.6 2.7-15.1 12.7-12.3 22.3l58.3 203.2c2.7 9.6 12.7 15.1 22.3 12.3 9.6-2.7 15.1-12.7 12.3-22.3l-58.3-203.2c-2.2-7.9-9.4-13-17.3-13zM381.8-25.4c-7.8 0-15 5.1-17.3 13l-58.3 203.2c-2.7 9.6 2.8 19.5 12.3 22.3 9.6 2.7 19.5-2.8 22.3-12.3l58.3-203.2c2.7-9.6-2.8-19.5-12.3-22.3-1.7-0.5-3.4-0.7-5-0.7zM181.6 92.1c-8 0-15.4 5.4-17.4 13.6l-8.3 32.4c-2.5 9.6 3.4 19.4 13 21.9s19.4-3.4 21.9-13l8.3-32.4c2.5-9.6-3.4-19.4-13-21.9-1.6-0.4-3.1-0.6-4.5-0.6zM777.2-104.3H246.8c-16.7 0-32.2 11.9-36.2 27.6l-29.2 114.5c-2.5 9.6 3.4 19.4 13 21.9s19.4-3.4 21.9-13l29.1-114.1c0.3-0.4 1.1-0.9 1.5-0.9h530.3c0.4 0 1.1 0.5 1.5 0.9L863 263.5c0.2 0.7 0.3 1.3 0.3 1.8H160.8c0-0.5 0.1-1.1 0.3-1.8l12.2-47.7c2.5-9.6-3.4-19.4-13-21.9s-19.4 3.4-21.9 13l-12.2 47.7c-3.2 12.7-1.1 25.2 6 34.3 6.1 7.9 15.4 12.4 25.6 12.4h708.4c10.1 0 19.5-4.5 25.6-12.4 7.1-9.1 9.3-21.6 6-34.3l-84.4-331.3c-4-15.8-19.6-27.6-36.2-27.6z"  horiz-adv-x="1024" />

    
    <glyph glyph-name="binggan" unicode="&#58892;" d="M512-44c-57.8 0-113.8 11.3-166.6 33.6-51 21.6-96.7 52.4-136 91.7s-70.2 85.1-91.7 136C95.3 270.2 84 326.2 84 384s11.3 113.8 33.6 166.6c21.6 51 52.4 96.7 91.7 136 39.3 39.3 85.1 70.2 136 91.7C398.2 800.7 454.2 812 512 812c2.4 0 4.9 0 7.9-0.1 6.4-0.1 11.6-5.3 11.8-11.7v-0.4c0-6.4-5-11.6-11.4-12-30-1.6-53.6-26.5-53.6-56.6 0-30.9 24.2-55.8 55.1-56.7 4.4-0.1 8.3-2.6 10.3-6.5s1.8-8.5-0.6-12.2c-19.9-30.1-30.4-65.1-30.4-101.2 0-101.2 82.4-183.6 183.6-183.6 35.4 0 69.8 10.1 99.4 29.2 3.7 2.4 8.4 2.6 12.3 0.4 3.9-2.1 6.3-6.2 6.2-10.6v-0.6c0.1-31.2 25.5-56.6 56.7-56.6 30.7 0 56.1 25 56.7 55.6 0.1 6.5 5.5 11.8 12 11.8 6.6 0 11.9-5.3 12-11.9v-4.6c0-57.8-11.3-113.8-33.6-166.6-21.6-51-52.4-96.7-91.7-136s-85.1-70.2-136-91.7C625.8-32.7 569.8-44 512-44z m-48.7 829.1C263.4 760.9 108 590.3 108 384c0-222.8 181.2-404 404-404 204.1 0 373.3 152.1 400.2 348.8-14.6-12.8-33.3-19.8-52.9-19.8-38 0-69.9 26.4-78.4 61.7-29.6-15.5-62.4-23.6-96.2-23.6-114.5 0-207.6 93.1-207.6 207.6 0 34.7 8.6 68.5 24.9 98.7-13.7 3.7-26.2 11.1-36.4 21.5-14.8 15.1-22.9 35.1-22.9 56.3 0.1 20.7 7.8 39.6 20.6 53.9zM677 489c-33.1 0-60 26.9-60 60s26.9 60 60 60 60-26.9 60-60-26.9-60-60-60z m0 96c-19.9 0-36-16.1-36-36s16.1-36 36-36 36 16.1 36 36-16.1 36-36 36zM286 292c-41.9 0-76 34.1-76 76s34.1 76 76 76 76-34.1 76-76-34.1-76-76-76z m0 128c-28.7 0-52-23.3-52-52s23.3-52 52-52 52 23.3 52 52-23.3 52-52 52zM494 76c-33.1 0-60 26.9-60 60s26.9 60 60 60 60-26.9 60-60-26.9-60-60-60z m0 96c-19.9 0-36-16.1-36-36s16.1-36 36-36 36 16.1 36 36-16.1 36-36 36zM461 294m-16 0a16 16 0 1 1 32 0 16 16 0 1 1-32 0ZM281 184m-16 0a16 16 0 1 1 32 0 16 16 0 1 1-32 0ZM229 536m-16 0a16 16 0 1 1 32 0 16 16 0 1 1-32 0ZM354 598m-24 0a24 24 0 1 1 48 0 24 24 0 1 1-48 0ZM766 220m-24 0a24 24 0 1 1 48 0 24 24 0 1 1-48 0ZM655 742m-16 0a16 16 0 1 1 32 0 16 16 0 1 1-32 0ZM838 462m-16 0a16 16 0 1 1 32 0 16 16 0 1 1-32 0Z"  horiz-adv-x="1024" />

    
    <glyph glyph-name="dangaojuan" unicode="&#58899;" d="M1026.141941 626.128079c-27.021412 52.775404-65.677748 100.126247-114.879025 140.772433C810.464936 850.157388 676.561923 896 534.217887 896S257.983514 850.157388 157.160185 766.900512c-49.175929-40.633512-87.832265-87.997029-114.853677-140.772433C14.233136 571.312127 0 513.074139 0 453.023739v-290.125306a290.898433 290.898433 0 0 1 290.898433-290.885759h486.689606A290.898433 290.898433 0 0 1 1068.435775 162.898433V453.023739c0 60.0504-14.220462 118.288388-42.293834 173.10434zM1048.157041 162.898433c0-149.213456-121.406243-270.607025-270.619699-270.607025h-397.970146c-73.954006 31.115182-124.042478 94.562269-137.489814 174.37176-15.094982 89.251776 18.301557 182.62267 87.160532 243.699681C451.113102 418.524544 642.328886 424.519445 755.382825 323.696116c40.874322-36.400327 63.371042-85.664975 63.256975-138.719212-0.076045-58.174617-27.781865-116.083075-76.045251-158.883877-76.70431-68.035151-196.906503-71.862762-267.945441-8.542417-25.348417 22.598114-39.290046 53.15563-39.290047 86.07055 0 36.184865 17.325643 72.242988 47.426888 98.96022 47.743743 42.357205 122.496225 44.803327 166.627819 5.462584 15.437186-13.751516 23.916231-32.331906 23.890883-52.344481 0-22.116494-10.633661-44.207639-29.150679-60.608065a10.139367 10.139367 0 0 1 13.460009-15.20905c22.813575 20.278734 35.918707 47.845137 35.944055 75.753744 0 25.880734-10.861797 49.847662-30.671584 67.515508-25.120281 22.395326-59.125183 34.080947-95.740971 32.952942a154.625343 154.625343 0 0 1-97.844889-38.440874c-34.42315-30.544842-54.194915-72.12892-54.245613-114.067876 0-38.783078 16.299032-74.77783 46.020051-101.228904C499.363814-31.625319 551.074585-49.495953 606.815754-47.734238c55.525707 1.672996 108.529247 22.49672 149.251479 58.630889 26.793277 23.764141 47.617001 51.31787 61.900834 81.875387A216.919078 216.919078 0 0 1 838.918534 184.976904c0.063371 58.935069-24.790752 113.586256-69.999654 153.89024-58.529495 52.129019-137.946085 79.454613-223.585712 76.780355-85.424165-2.534842-166.970023-34.613263-229.605961-90.176994-74.042726-65.614377-109.936084-166.108176-93.700423-262.166002 12.357353-73.054138 52.91482-133.497438 113.408818-171.000421h-44.537169C141.672302-107.708592 20.278734 13.684977 20.278734 162.898433v12.674209c0 233.078694 230.556526 422.697527 513.939153 422.697527S1048.157041 408.613313 1048.157041 175.534619z m-22.0151 185.740525c-27.021412 52.775404-65.677748 100.126247-114.879025 140.785108-100.79798 83.244201-234.700993 129.086813-377.045029 129.086814S257.983514 572.668267 157.160185 489.424066c-49.175929-40.646187-87.832265-88.009704-114.853677-140.785108A394.510087 394.510087 0 0 1 20.278734 296.953536V453.023739C20.278734 686.102433 250.83526 875.721266 534.217887 875.721266S1048.157041 686.102433 1048.157041 453.023739v-156.070203a394.510087 394.510087 0 0 1-22.0151 51.685422zM261.152066 720.386167a10.139367 10.139367 0 0 1-14.144417-2.357402l-35.690571-49.949056a10.139367 10.139367 0 0 1 16.476471-11.787014l35.677897 49.949056a10.139367 10.139367 0 0 1-2.31938 14.144416zM392.520237 707.027552h-40.303983a10.139367 10.139367 0 0 1 0-20.278734h40.303983a10.139367 10.139367 0 0 1 0 20.278734zM519.313018 784.061391a10.139367 10.139367 0 0 1-17.198901-10.735055l35.677897-57.173354a10.139367 10.139367 0 1 1 17.198901 10.747728zM690.807733 773.693888l-46.134119-30.202639a10.139367 10.139367 0 1 1 11.102607-16.970765l46.146793 30.215313a10.139367 10.139367 0 1 1-11.115281 16.958091zM835.230339 644.44231L788.804713 683.073298a10.139367 10.139367 0 0 1-12.978389-15.589277l46.463648-38.66901A10.139367 10.139367 0 0 1 835.230339 644.44231zM931.871179 600.348739a10.139367 10.139367 0 0 1-20.17734-2.053222l4.651434-46.070748a10.139367 10.139367 0 0 1 10.139367-9.112756 9.505656 9.505656 0 0 1 1.039285 0 10.139367 10.139367 0 0 1 9.062059 11.115281zM180.69619 575.190435l-71.609278-20.773028a10.139367 10.139367 0 0 1 2.826349-19.873159 10.025299 10.025299 0 0 1 2.826348 0.405575L186.310865 555.710176a10.139367 10.139367 0 1 1-5.640023 19.480259z"  horiz-adv-x="1068" />

    
    <glyph glyph-name="cake1" unicode="&#59130;" d="M985.358491 65.20754699999998H154.566038v-96.603773h830.792453z m38.641509-135.245283H115.924528V103.84905700000002h908.075472zM115.924528 495.287547a38.641509 38.641509 0 0 1 19.320755-5.023396h19.320755v-57.962264h830.792453V538.5660379999999h-27.049057c5.506415 0 11.109434 0.579623 17.098868 0.483019h28.981132a38.641509 38.641509 0 0 1 19.320755 5.216603V393.660377H115.924528zM569.962264 702.792453a96.603774 96.603774 0 1 0 96.603774 96.603773 96.603774 96.603774 0 0 0-96.603774-96.603773z m0 38.641509a57.962264 57.962264 0 1 1-57.962264 57.962264 57.962264 57.962264 0 0 1 57.962264-57.962264zM48.301887-70.037736a9.660377 9.660377 0 0 1 0-19.320755h1043.320755a9.660377 9.660377 0 0 1 0 19.320755z m0 38.64151h1043.320755a48.301887 48.301887 0 0 0 0-96.603774H48.301887a48.301887 48.301887 0 0 0 0 96.603774zM135.245283 490.264151a38.641509 38.641509 0 0 0-38.641509 38.641509V683.4716980000001a57.962264 57.962264 0 0 0 57.962264 57.962264h830.792453a57.962264 57.962264 0 0 0 57.962264-57.962264v-106.264151a38.641509 38.641509 0 0 0-38.64151-38.641509h-28.981132c-29.850566 0-52.262642-5.506415-87.909434-20.866415l-7.341887-3.187925-7.43849-3.284528C822.677736 489.394717 791.184906 480.603774 743.849057 480.603774c-69.264906 0-121.913962 7.245283-204.8 24.633962l-36.129812 7.631698c-13.331321 2.801509-24.440755 4.926792-34.970566 6.858868a550.641509 550.641509 0 0 1-82.113207 9.660377 442.735094 442.735094 0 0 1-138.529812-19.030943s-38.158491-10.723019-48.301886-13.234717A193.690566 193.690566 0 0 0 154.566038 490.264151z m0 38.641509h19.320755a158.913208 158.913208 0 0 1 35.550188 5.699623c9.660377 2.318491 46.563019 12.848302 47.239246 13.041509A479.73434 479.73434 0 0 0 386.994717 567.54717a588.413585 588.413585 0 0 0 87.81283-9.660378c10.916226-1.932075 22.315472-4.153962 35.936604-7.052075l36.226415-7.631698C627.924528 526.2007550000001 677.772075 519.245283 743.849057 519.245283c40.96 0 67.622642 7.438491 113.41283 27.338868l7.43849 3.284528 7.535095 3.284529c40.283774 17.388679 67.622642 24.633962 103.752453 24.054339h28.981132V683.4716980000001a19.320755 19.320755 0 0 1-19.320755 19.320755H154.566038a19.320755 19.320755 0 0 1-19.320755-19.320755zM217.358491 528.90566h28.981132v-96.603773h-28.981132V528.90566zM352.603774 528.90566h28.981132v-96.603773h-28.981132V528.90566zM487.849057 528.90566h28.981132v-96.603773h-28.981132V528.90566zM623.09434 499.924528h28.981132v-67.622641h-28.981132v67.622641zM758.339623 499.924528h28.981132v-67.622641h-28.981132v67.622641zM893.584906 548.226415h28.981132v-115.924528h-28.981132V548.226415zM276.48 316.37735799999996A12.461887 12.461887 0 1 0 260.830189 297.056604a62.116226 62.116226 0 1 1 0-97.376604 12.461887 12.461887 0 0 0 15.36-19.320755 86.943396 86.943396 0 1 0 0 136.307925zM268.751698 307.103396m-12.461887 0a12.461887 12.461887 0 1 1 24.923774 0 12.461887 12.461887 0 1 1-24.923774 0ZM268.461887 190.11622599999998m-12.461887 0a12.461887 12.461887 0 1 1 24.923774 0 12.461887 12.461887 0 1 1-24.923774 0ZM881.895849 335.69811300000003h105.587925a12.461887 12.461887 0 0 0 12.461886-12.461887 12.461887 12.461887 0 0 0-12.461886-12.461886H881.895849A12.461887 12.461887 0 0 0 869.433962 323.236226 12.461887 12.461887 0 0 0 881.895849 335.69811300000003zM881.895849 261.21660399999996h105.587925A12.461887 12.461887 0 0 0 999.849057 248.75471700000003a12.461887 12.461887 0 0 0-12.461887-12.461887H881.895849A12.461887 12.461887 0 0 0 869.433962 248.75471700000003a12.461887 12.461887 0 0 0 12.461887 12.461887zM881.895849 186.63849100000004h105.587925a12.461887 12.461887 0 0 0 12.461886-12.461887 12.461887 12.461887 0 0 0-12.55849-12.365283H881.895849A12.461887 12.461887 0 0 0 869.433962 174.27320799999995a12.461887 12.461887 0 0 0 12.461887 12.365283zM881.895849 335.69811300000003a12.461887 12.461887 0 0 0 12.461887-12.461887v-148.963018A12.461887 12.461887 0 0 0 881.895849 161.81132100000002 12.461887 12.461887 0 0 0 869.433962 174.27320799999995V323.236226A12.461887 12.461887 0 0 0 881.895849 335.69811300000003zM659.70717 335.69811300000003a12.461887 12.461887 0 0 0 12.461887-12.461887v-148.963018A12.461887 12.461887 0 0 0 659.70717 161.81132100000002 12.461887 12.461887 0 0 0 647.245283 174.27320799999995V323.236226A12.461887 12.461887 0 0 0 659.70717 335.69811300000003zM751.577358 333.186415a12.461887 12.461887 0 1 0 14.876982-19.900377L667.14566 239.09434a12.461887 12.461887 0 0 0-14.973585 19.320754zM766.45434 184.12679200000002a12.461887 12.461887 0 1 0-14.876982-19.900377L652.172075 239.09434a12.461887 12.461887 0 0 0 14.973585 19.320754zM446.309434 327.873208a12.461887 12.461887 0 1 0 23.088302-9.177359l-59.024906-149.059623a12.461887 12.461887 0 1 0-23.088302 9.177359zM446.502642 318.309434a12.461887 12.461887 0 1 0 22.79849 9.660377l65.110943-148.769811a12.461887 12.461887 0 0 0-22.79849-9.660377zM419.646792 214.55698099999995a12.461887 12.461887 0 1 0 0 24.82717h80.470944a12.461887 12.461887 0 0 0 0-24.82717z"  horiz-adv-x="1139" />

    
    <glyph glyph-name="daifukuan" unicode="&#59140;" d="M962.195652-127.985667H200.204807C89.8399-127.985667 0-38.174433 0 72.21914V695.795193C0 806.1601 89.811234 896 200.204807 896h762.005179c110.364906 0 200.204807-89.811234 200.204806-200.204807v-623.490055c-0.014333-110.479571-89.811234-200.290805-200.21914-200.290805zM200.204807 845.805467A150.210937 150.210937 0 0 1 50.151533 695.795193v-623.490055a150.210937 150.210937 0 0 1 150.038941-150.03894h762.005178a150.210937 150.210937 0 0 1 150.038941 149.952942V695.795193A150.210937 150.210937 0 0 1 962.195652 845.834134zM1135.898548 193.090212H760.858531a173.430567 173.430567 0 0 0 0 346.775135h373.62104v-50.165866H760.858531a123.264701 123.264701 0 0 1 0-246.443403H1135.898548zM783.132175 366.477779m-60.743697 0a60.743698 60.743698 0 1 1 121.487395 0 60.743698 60.743698 0 1 1-121.487395 0Z"  horiz-adv-x="1162" />

    
    <glyph glyph-name="lianxi" unicode="&#59704;" d="M252.768 735.232a90.88 90.88 0 0 1-9.28-5.76 217.6 217.6 0 0 1-27.904-24.192 429.248 429.248 0 0 1-36.288-41.504c-9.6-11.296-19.52-37.92-20.032-55.04l-0.576-4.832c-2.944-30.72 3.04-69.792 18.944-115.008 28.16-80.064 83.136-164.256 165.792-250.56 84.864-88.64 169.696-145.472 252.32-171.808 24.64-7.84 48.096-12.608 70.112-14.432a38.944 38.944 0 0 0-6.4-77.6 395.776 395.776 0 0 0-87.36 17.856c-95.488 30.4-191.264 94.304-284.928 192.096-90.144 94.176-151.008 187.68-182.976 278.592-19.616 55.744-27.072 105.952-23.232 146.208 0.192 1.984 0.416 3.84 0.64 5.44 1.632 33.024 17.6 75.104 37.024 97.824a506.048 506.048 0 0 0 41.856 47.776 291.744 291.744 0 0 0 38.336 32.96c33.28 23.296 63.904 29.856 88.32 15.36 20.992-9.6 38.4-37.376 76.768-115.52l9.6-19.776a3785.728 3785.728 0 0 0 54.24-118.272c10.368-23.488 7.584-55.104-6.752-76.384l-44.416-65.92c1.664-3.84 4.544-8.928 8.64-15.008 10.912-16.384 28.864-37.76 53.792-63.136 34.208-34.848 64.32-58.4 89.28-70.816 5.12-2.56 9.696-4.448 13.536-5.696l57.408 42.4c20.896 14.112 52.032 17.376 75.264 8l9.536-3.776a3480.288 3480.288 0 0 0 100.32-42.176c7.84-3.488 15.36-6.848 22.464-10.112 70.08-32.032 95.456-47.168 105.056-68.064 23.072-43.904-2.368-89.152-69.6-148.48a735.232 735.232 0 0 0-24.64-20.768 38.944 38.944 0 0 0-48.32 61.088 657.664 657.664 0 0 1 21.44 18.08c17.088 15.104 31.68 30.592 41.248 43.52 3.072 4.192 5.504 7.936 7.168 11.008a233.216 233.216 0 0 1-9.28 5.44c-13.28 7.424-32 16.64-55.456 27.36a3025.536 3025.536 0 0 1-128.8 54.592c0.512-0.224-3.392-0.64-2.88-0.256l-74.752-50.432a39.744 39.744 0 0 0-20.928-6.656c-14.24-0.32-32.48 4.8-53.44 15.2-33.28 16.544-70.08 45.12-110.176 85.984-66.848 68.096-94.08 117.504-83.328 154.56 1.28 4.416 3.04 8.32 5.728 12.48l50.56 75.104a77.216 77.216 0 0 1-4.32 11.424 4172.448 4172.448 0 0 1-48.8 105.984c-3.2 6.656-6.272 13.056-9.28 19.2a1091.04 1091.04 0 0 1-32.864 62.72 289.28 289.28 0 0 1-8.384 13.728z"  horiz-adv-x="1024" />

    
    <glyph glyph-name="shengdanjie-" unicode="&#60207;" d="M291.2 315.2c-145.6 0-263.2 172-263.2 313.6C28 773.6 146.4 891.2 291.2 891.2s263.2-117.6 263.2-262.4c0-141.6-117.6-313.6-263.2-313.6z m0 544.8C164 860 60 756.8 60 629.6c0-128 103.2-281.6 231.2-281.6 128 0 231.2 154.4 231.2 281.6 0 127.2-104 230.4-231.2 230.4zM487.2 621.6c-4.8 0-8 3.2-8 8 0 103.2-84 188-188 188-4.8 0-8 3.2-8 8s3.2 8 8 8c112.8 0 204-91.2 204-204 0-4.8-3.2-8-8-8zM262.4-124h-0.8c-8.8 0.8-15.2 8-15.2 16.8 2.4 31.2 4.8 66.4 20 98.4 7.2 14.4 16.8 27.2 25.6 40 8.8 12 16.8 23.2 22.4 35.2 16 32 13.6 72.8-4.8 104-3.2 4.8-6.4 10.4-10.4 15.2-7.2 9.6-14.4 20-19.2 32.8-8.8 22.4-8 45.6-7.2 68 0.8 15.2 1.6 29.6-1.6 43.2-1.6 8.8 4 16.8 12.8 18.4 8.8 1.6 16.8-4 18.4-12.8 3.2-16.8 2.4-34.4 1.6-50.4-0.8-20-1.6-38.4 4.8-54.4 3.2-8.8 9.6-16.8 16-25.6 4-5.6 8-11.2 12-17.6 24-40 26.4-92 6.4-134.4-7.2-14.4-16-27.2-25.6-40-8.8-12-16.8-23.2-22.4-35.2-12.8-26.4-14.4-56.8-16.8-86.4-0.8-8.8-7.2-15.2-16-15.2zM835.2 178.4c-36 0-69.6 16-92.8 43.2-23.2 26.4-32.8 61.6-28 96.8l0.8 3.2c1.6 7.2 3.2 15.2 4.8 22.4 4 19.2 8.8 37.6 4.8 53.6-1.6 7.2-4.8 13.6-8 20.8-4 8-7.2 16-9.6 25.6-8 28.8 0 56.8 8 84 6.4 22.4 12.8 44 8.8 63.2-1.6 10.4-6.4 20-11.2 31.2-4.8 11.2-10.4 23.2-13.6 36-8.8 40 8.8 77.6 24.8 112l2.4 4.8c8 16.8 12.8 30.4 16 43.2 10.4 43.2 48 73.6 91.2 73.6h6.4c43.2 0 80.8-30.4 91.2-73.6 3.2-12.8 8-26.4 16-43.2l2.4-4.8c15.2-33.6 32.8-72 24.8-112-3.2-12.8-8-24.8-13.6-36-4.8-10.4-9.6-20.8-11.2-31.2-4-20 2.4-40.8 8.8-63.2 8-27.2 16-55.2 8-84-2.4-9.6-6.4-17.6-9.6-25.6-3.2-7.2-6.4-14.4-8-20.8-4-16 0-34.4 4.8-53.6 1.6-7.2 3.2-14.4 4.8-22.4l0.8-3.2c5.6-34.4-4.8-69.6-28-96.8-26.4-27.2-60.8-43.2-96-43.2z m-4 681.6c-28.8 0-52.8-20-60-48.8-3.2-14.4-8.8-30.4-17.6-48.8l-2.4-5.6c-14.4-30.4-28.8-62.4-22.4-91.2 2.4-9.6 6.4-19.2 11.2-29.6 5.6-12 11.2-24.8 13.6-38.4 4.8-27.2-2.4-53.6-9.6-78.4-7.2-24-13.6-46.4-8-66.4 1.6-6.4 4.8-12.8 8-20 4-8.8 8-16.8 10.4-27.2 5.6-24 0.8-46.4-4-68-1.6-7.2-3.2-13.6-4-20l-0.8-3.2c-4-25.6 3.2-51.2 20.8-71.2s42.4-32 68.8-32 52 11.2 68.8 32c16.8 20 24 45.6 20.8 70.4l-0.8 3.2c-0.8 6.4-2.4 13.6-4 20-4.8 21.6-10.4 44.8-4 68 2.4 9.6 6.4 18.4 10.4 27.2 3.2 7.2 6.4 13.6 8 20 5.6 20.8-0.8 43.2-8 66.4-7.2 24.8-15.2 51.2-9.6 78.4 2.4 14.4 8 26.4 13.6 38.4 4.8 10.4 8.8 20 11.2 29.6 6.4 29.6-8 60.8-22.4 91.2l-2.4 5.6c-8.8 19.2-14.4 34.4-17.6 48.8-7.2 28.8-31.2 48.8-60 48.8h-8zM775.2-116.8c-23.2 0-45.6 2.4-68 7.2-20 4-39.2 10.4-58.4 16-5.6 1.6-11.2 3.2-16.8 5.6-56 16.8-114.4 28.8-172.8 36-8.8 0.8-15.2 8.8-13.6 17.6 0.8 8.8 8.8 15.2 17.6 13.6 60-7.2 120-20 177.6-36.8 5.6-1.6 11.2-3.2 17.6-5.6 19.2-5.6 36.8-11.2 55.2-15.2 55.2-12 114.4-7.2 168 12.8 32 12 56.8 28 72 47.2 7.2 8.8 10.4 16 9.6 22.4-0.8 6.4-5.6 13.6-16 21.6-33.6 27.2-79.2 40.8-128 40h-7.2c-10.4 0-20.8-0.8-32 0.8-18.4 3.2-33.6 12.8-40.8 26.4-8 15.2-7.2 31.2-6.4 43.2 0 3.2 0.8 10.4 6.4 16 5.6 5.6 12.8 6.4 15.2 6.4 15.2 1.6 29.6-2.4 42.4-5.6 10.4-2.4 20-5.6 28-4.8 0.8 15.2-0.8 29.6-4 44.8-1.6 8.8 3.2 16.8 12 19.2 8.8 1.6 16.8-3.2 19.2-12 4-19.2 5.6-38.4 4-58.4 0-3.2-0.8-10.4-6.4-16.8-4.8-5.6-10.4-7.2-14.4-8-16.8-3.2-32.8 0.8-47.2 4.8-8 2.4-16.8 4.8-24 4.8 0-8 0-14.4 2.4-19.2 3.2-5.6 9.6-9.6 19.2-11.2 8-1.6 16.8-0.8 25.6-0.8h8c56 1.6 109.6-15.2 148.8-47.2 17.6-13.6 26.4-28 28-44 1.6-14.4-4-29.6-16.8-45.6-19.2-24-48.8-43.2-85.6-56.8-38.4-11.2-78.4-18.4-118.4-18.4zM854.4 250.4c-4 0-7.2 2.4-8 6.4-11.2 48.8-8.8 100 5.6 148 0.8 4 2.4 7.2 3.2 11.2 5.6 17.6 11.2 34.4 8.8 51.2-2.4 15.2-11.2 28.8-20.8 44-11.2 17.6-23.2 35.2-24 56.8-0.8 23.2 11.2 44 23.2 64 12.8 21.6 24.8 41.6 17.6 62.4-3.2 9.6-11.2 18.4-19.2 26.4-3.2 3.2-6.4 6.4-9.6 10.4-12.8 14.4-22.4 36-12 54.4 2.4 4 7.2 5.6 11.2 3.2 4-2.4 5.6-7.2 3.2-11.2-6.4-11.2 1.6-26.4 10.4-36.8 2.4-3.2 5.6-6.4 8.8-9.6 8.8-9.6 18.4-19.2 23.2-32 9.6-27.2-4.8-52-19.2-76-10.4-17.6-21.6-36.8-20.8-55.2 0.8-17.6 10.4-32.8 20.8-48.8 10.4-15.2 20.8-31.2 23.2-50.4 3.2-20.8-3.2-40-9.6-58.4-0.8-4-2.4-7.2-3.2-10.4-13.6-45.6-15.2-93.6-4.8-140 0.8-4-1.6-8.8-6.4-9.6h-1.6z"  horiz-adv-x="1024" />

    
    <glyph glyph-name="daifahuo" unicode="&#58883;" d="M60.235294 835.764706v-903.529412h933.647059V835.764706H60.235294z m0 60.235294h933.647059a60.235294 60.235294 0 0 0 60.235294-60.235294v-903.529412a60.235294 60.235294 0 0 0-60.235294-60.235294H60.235294a60.235294 60.235294 0 0 0-60.235294 60.235294V835.764706a60.235294 60.235294 0 0 0 60.235294 60.235294z m361.411765-60.235294v-378.75953l102.761412 37.044706a60.235294 60.235294 0 0 0 41.562353-0.271058L662.588235 457.577412V835.764706h-240.941176z m0 60.235294h240.941176a60.235294 60.235294 0 0 0 60.235294-60.235294v-378.187294a60.235294 60.235294 0 0 0-81.377882-56.410353l-96.587294 36.231529-102.791529-37.044706A60.235294 60.235294 0 0 0 361.411765 456.944941V835.764706a60.235294 60.235294 0 0 0 60.235294 60.235294zM0 594.823529V655.058824h391.529412v-60.235295H0z m662.588235 0V655.058824h331.294118v-60.235295H662.588235z"  horiz-adv-x="1054" />

    
    <glyph glyph-name="daishouhuo" unicode="&#58885;" d="M361.328978 203.452792H150.553741a30.110748 30.110748 0 1 0 0 60.221497h180.664489v90.332244a30.110748 30.110748 0 1 0 60.221496 0v-120.442992a30.110748 30.110748 0 0 0-30.110748-30.110749zM1023.765437 835.778504H421.550474v-301.107482a60.221496 60.221496 0 0 0-60.221496-60.221496H210.775237a150.553741 150.553741 0 0 1-150.553741-150.553741v-240.885985a30.110748 30.110748 0 0 1 30.110748-30.110748h121.255983a60.221496 60.221496 0 0 0 59.860168-53.597132 75.27687 75.27687 0 0 1 149.650418 0A60.221496 60.221496 0 0 0 480.95898 52.899052h182.29047a60.221496 60.221496 0 0 0 59.860167-53.597132 75.27687 75.27687 0 0 1 149.650418 0A60.221496 60.221496 0 0 0 932.620203 52.899052H1023.765437V835.778504zM480.95898-7.322445a135.498367 135.498367 0 0 0-269.370753 0H90.332244a90.332244 90.332244 0 0 0-90.332244 90.332245v240.885985a210.775237 210.775237 0 0 0 210.775237 210.775237h150.553741V865.889252a30.110748 30.110748 0 0 0 30.110748 30.110748h662.436459a30.110748 30.110748 0 0 0 30.110749-30.110748v-843.100948a30.110748 30.110748 0 0 0-30.110749-30.110749h-121.255982a135.498367 135.498367 0 0 0-269.370753 0h-182.29047z"  horiz-adv-x="1084" />

    
    <glyph glyph-name="youhuiquan-xianxing" unicode="&#59355;" d="M720.9 239.6c11 0 20.2 9.2 20.2 20.2s-9.2 20.2-20.2 20.2h-81l77.3 108.6c7.4 9.2 3.7 22.1-3.7 27.6-9.2 7.4-22.1 3.7-27.6-3.7l-68.1-95.7-73.6 95.7c-7.4 9.2-18.4 11-27.6 3.7-9.2-7.4-11-18.4-3.7-27.6l82.8-106.8H524c-11 0-20.2-9.2-20.2-20.2s9.2-20.2 20.2-20.2h75.5v-25.8H524c-11 0-20.2-9.2-20.2-20.2s9.2-20.2 20.2-20.2h75.5v-53.4c0-11 9.2-20.2 20.2-20.2s20.2 9.2 20.2 20.2v53.4h82.8c11 0 20.2 9.2 20.2 20.2s-9.2 20.2-20.2 20.2h-82.8v25.8h81v-1.8z m-425.2-11.1h40.5v-60.7h-40.5v60.7z m0-125.1h40.5v-60.7h-40.5v60.7z m0 371.8h40.5v-62.6h-40.5v62.6z m0-123.4h40.5v-60.7h-40.5v60.7zM939.9 348.2h20.2v138c0 44.2-36.8 81-81 81H746.7L398.8 804.6c-36.8 25.8-86.5 16.6-112.3-20.2l-49.7-79.1c-31.3-1.8-58.9-23.9-69.9-55.2l-29.4-86.5c-40.5-3.7-71.8-38.7-71.8-79.1v-136.2h20.2c49.7 0 90.2-40.5 90.2-90.2s-40.5-90.2-90.2-90.2H63.8v-138c0-44.2 36.8-81 81-81h734.4c44.2 0 81 36.8 81 79.1V166H940c-49.7 0-90.2 40.5-90.2 90.2-0.1 51.5 40.4 92 90.1 92zM321.5 760.4c14.7 18.4 36.8 22.1 55.2 11l300-204.3h-7.4L279.2 697.9l42.3 62.5zM203.7 639c5.5 16.6 20.2 27.6 38.7 27.6 3.7 0 9.2 0 12.9-1.8l287.1-97.6H179.8l23.9 71.8z m716-508v-99.4c0-22.1-18.4-40.5-40.5-40.5H144.8c-22.1 0-40.5 18.4-40.5 40.5V131c62.6 9.2 110.4 62.6 110.4 128.8 0 64.4-47.9 117.8-110.4 128.8V488c0 22.1 18.4 40.5 40.5 40.5h734.4c22.1 0 40.5-18.4 40.5-40.5v-99.4c-62.6-9.2-110.4-64.4-110.4-128.8 0-66.3 47.8-119.6 110.4-128.8z"  horiz-adv-x="1024" />

    
    <glyph glyph-name="yiwancheng" unicode="&#58895;" d="M372.893538-128H94.523077a94.523077 94.523077 0 0 0-94.523077 94.523077V801.476923a94.523077 94.523077 0 0 0 94.523077 94.523077h693.169231a94.523077 94.523077 0 0 0 94.523077-94.523077v-236.307692a31.507692 31.507692 0 0 0-63.015385 0V801.476923a31.507692 31.507692 0 0 1-31.507692 31.507692H94.523077a31.507692 31.507692 0 0 1-31.507692-31.507692v-834.953846a31.507692 31.507692 0 0 1 31.507692-31.507692h278.370461a31.507692 31.507692 0 0 0 0-63.015385zM661.661538 612.430769H173.292308a31.507692 31.507692 0 0 0 0 63.015385h488.36923a31.507692 31.507692 0 0 0 0-63.015385zM330.830769 376.123077H173.292308a31.507692 31.507692 0 0 0 0 63.015385h157.538461a31.507692 31.507692 0 0 0 0-63.015385zM267.815385 139.815385h-94.523077a31.507692 31.507692 0 0 0 0 63.015384h94.523077a31.507692 31.507692 0 0 0 0-63.015384zM708.923077-128a315.076923 315.076923 0 1 0 315.076923 315.076923 315.076923 315.076923 0 0 0-315.076923-315.076923z m0 567.138462a252.061538 252.061538 0 1 1 252.061538-252.061539 252.061538 252.061538 0 0 1-252.061538 252.061539zM693.169231 45.292308a31.507692 31.507692 0 0 0-22.212923 9.294769l-110.276923 110.276923a31.507692 31.507692 0 0 0 44.425846 44.425846L693.169231 121.383385l158.956307 158.798769a31.507692 31.507692 0 0 0 44.425847-44.425846l-181.169231-181.169231A31.507692 31.507692 0 0 0 693.169231 45.292308z"  horiz-adv-x="1024" />

    
    <glyph glyph-name="fenlei" unicode="&#58930;" d="M164.3 689.6c-29.8 0-54-24.2-54-54s24.2-54 54-54 54 24.2 54 54-24.2 54-54 54z m188.9-94h525c20.7 0 37.5 17.9 37.5 40s-16.8 40-37.5 40h-525c-20.7 0-37.5-17.9-37.5-40s16.8-40 37.5-40zM164.3 436.8c-29.8 0-54-24.2-54-54s24.2-54 54-54 54 24.2 54 54-24.2 54-54 54z m713.9-14h-525c-20.7 0-37.5-17.9-37.5-40s16.8-40 37.5-40h525c20.7 0 37.5 17.9 37.5 40s-16.8 40-37.5 40zM164.3 184c-29.8 0-54-24.2-54-54s24.2-54 54-54 54 24.2 54 54-24.2 54-54 54z m713.9-14h-525c-20.7 0-37.5-17.9-37.5-40s16.8-40 37.5-40h525c20.7 0 37.5 17.9 37.5 40s-16.8 40-37.5 40z"  horiz-adv-x="1024" />

    
    <glyph glyph-name="shoucang5" unicode="&#58894;" d="M854.326168-127.997287a23.76293 23.76293 0 0 0-11.121919 2.766916l-275.226815 144.693459a66.405997 66.405997 0 0 1-61.740216 0l-275.226815-144.693459a23.817183 23.817183 0 0 0-34.613583 25.119262L254.990347 240.762157 7.215684 482.134934a23.871437 23.871437 0 0 0 13.237797 40.689949l307.724521 44.70469a66.29749 66.29749 0 0 1 49.913004 36.295435l137.640534 278.861783a23.817183 23.817183 0 0 0 42.751573 0l137.640534-278.861783a66.29749 66.29749 0 0 1 49.913004-36.295435l307.72452-44.70469a23.871437 23.871437 0 0 0 12.423998-41.449495l-261.826258-232.746508 73.296161-347.817683a23.871437 23.871437 0 0 0-23.328904-28.808484zM75.140772 482.56896l222.004362-216.416275A23.654424 23.654424 0 0 0 303.818285 244.939658l-52.191641-305.445883 232.420989 122.178353a113.931857 113.931857 0 0 0 106.119387 0l230.305111-121.039035-65.646451 311.685009a23.817183 23.817183 0 0 0 7.48695 22.786372l233.831573 207.898512-256.943464 37.326247a113.931857 113.931857 0 0 0-85.882919 62.391255L537.107326 818.179659l-116.210494-235.459171a113.931857 113.931857 0 0 0-85.882919-62.391255z"  horiz-adv-x="1074" />

    
    <glyph glyph-name="gou3" unicode="&#59270;" d="M384 128c-12.8 0-21.333333 4.266667-29.866667 12.8l-213.333333 213.333333c-17.066667 17.066667-17.066667 42.666667 0 59.733334s42.666667 17.066667 59.733333 0L384 230.4 823.466667 669.866667c17.066667 17.066667 42.666667 17.066667 59.733333 0s17.066667-42.666667 0-59.733334l-469.333333-469.333333c-8.533333-8.533333-17.066667-12.8-29.866667-12.8z"  horiz-adv-x="1024" />

    
    <glyph glyph-name="gou1" unicode="&#58896;" d="M514 781.7c-220 0-398.8-178.9-398.8-398.8S294-16 514-16s398.8 178.9 398.8 398.8S734 781.7 514 781.7z m0-755c-196.5 0-356.1 159.6-356.1 356.1 0 196.5 160.2 356.1 356.1 356.1 196.5 0 356.1-159.6 356.1-356.1S710.5 26.7 514 26.7zM739.7 518.6L525 303.8c-24.3-24.3-63.9-24.3-88.2-0.1l-95.5 95.1-30.1-30.3 95.5-95.1c20.5-20.4 47.4-30.6 74.2-30.6 26.9 0 53.9 10.2 74.3 30.7l214.7 214.7-30.2 30.4z"  horiz-adv-x="1024" />

    
    <glyph glyph-name="cuxiaohuodong-gexingdazhe" unicode="&#58880;" d="M309.95456 115.59424h-207.0016a29.568 29.568 0 0 0-29.568 29.56288v207.00672c32.66048-0.01536 59.15136 26.45504 59.16672 59.11552 0.01024 32.6656-26.45504 59.15648-59.12064 59.16672h-0.04608V677.44256a29.56288 29.56288 0 0 0 29.568 29.568h206.99648l0.00512-591.41632zM552.82176 523.30496m-48 0a48 48 0 1 1 96 0 48 48 0 1 1-96 0ZM930.93888 647.87456a29.56288 29.56288 0 0 0 29.568 29.568 29.568 29.568 0 0 1-29.568 29.568H369.09056v-591.4112h561.85344a29.568 29.568 0 0 1 29.56288 29.568 29.568 29.568 0 1 0 0 59.136v59.14624a29.568 29.568 0 1 0 0 59.13088v59.14112a29.568 29.568 0 1 0 0 59.136V500.0192a29.568 29.568 0 1 0 0 59.14112V618.30144a29.568 29.568 0 0 0-29.568 29.57312z m-378.11712-44.5696c44.20096 0 80-35.79904 80-80s-35.79904-80-80-80c-44.20608 0-80 35.79904-80 80s35.79392 80 80 80z m224-384c-44.20608 0-80 35.79904-80 80s35.79392 80 80 80c44.20096 0 80-35.79904 80-80s-35.80928-80-80-80z m75.38688 356.59776l-352-352c-3.2-3.2-7.19872-4.58752-11.40224-4.58752a16.60416 16.60416 0 0 0-11.40224 4.58752 16.05632 16.05632 0 0 0 0 22.59968l352 352a16.05632 16.05632 0 0 0 22.59968 0c6.41024-6.1952 6.41024-16.19968 0.2048-22.59968zM776.82176 299.30496m-48 0a48 48 0 1 1 96 0 48 48 0 1 1-96 0Z"  horiz-adv-x="1024" />

    
    <glyph glyph-name="gou2" unicode="&#59495;" d="M512-33.959184c-230.4 0-417.959184 187.559184-417.959184 417.959184s187.559184 417.959184 417.959184 417.959184 417.959184-187.559184 417.959184-417.959184-187.559184-417.959184-417.959184-417.959184zM459.755102 258.612245c-5.22449 0-10.44898 2.089796-14.628571 6.269388l-104.489796 104.489796c-8.359184 8.359184-8.359184 21.420408 0 29.779591 8.359184 8.359184 21.420408 8.359184 29.779592 0l104.489795-104.489796c8.359184-8.359184 8.359184-21.420408 0-29.779591-4.702041-4.179592-9.926531-6.269388-15.15102-6.269388zM459.755102 258.612245c-5.22449 0-10.44898 2.089796-14.628571 6.269388-8.359184 8.359184-8.359184 21.420408 0 29.779591l208.979591 208.979592c8.359184 8.359184 21.420408 8.359184 29.779592 0 8.359184-8.359184 8.359184-21.420408 0-29.779592l-208.979592-208.979591c-4.702041-4.179592-9.926531-6.269388-15.15102-6.269388z"  horiz-adv-x="1024" />

    
    </font>
</defs>
</svg>
